<svg width="548" height="320" viewBox="0 0 548 320" fill="none" xmlns="http://www.w3.org/2000/svg">
<g clip-path="url(#clip0_1345_979)">
<path d="M-432.334 200.858C-434.337 200.508 -444.297 202.171 -449.026 203.047L-465.719 210.049L-480.742 220.115L-514.127 217.927L-530.819 225.367L-540 216.614V249H540V81.379L524.142 85.7555L506.615 70L489.923 77.4401H472.396L455.703 103.262L440.68 107.638L422.318 98.8851L407.295 116.829L389.768 119.892L373.076 109.389L356.383 133.897L340.526 135.648L322.164 128.645L307.141 151.403L287.944 148.778L272.087 131.709L257.063 138.274H240.371C234.807 133.46 223.345 123.831 222.009 123.831C220.674 123.831 210.325 148.923 205.317 161.469L188.624 167.159C184.451 166.138 175.104 164.008 171.097 163.658C167.091 163.308 148.841 172.848 140.216 177.663L126.028 167.159L105.997 155.342L89.3045 156.655L74.2813 148.778L55.9196 141.337H39.2272L20.8655 130.834L3.33844 145.714H-10.8501C-12.8532 145.714 -24.4822 142.213 -30.0464 140.462L-45.0695 162.345L-62.5966 169.347L-79.289 145.714L-95.9814 166.721L-112.674 173.724L-127.697 161.032L-143.555 148.34H-162.751L-179.444 122.081L-193.632 122.956L-211.159 130.834L-228.686 124.269L-246.213 172.411L-262.906 158.844L-279.598 152.716L-295.456 184.665L-314.652 185.54L-330.51 178.1H-363.895L-380.587 181.164L-397.28 194.293L-413.138 190.355C-418.702 194.002 -430.331 201.208 -432.334 200.858Z" fill="url(#paint0_linear_1345_979)"/>
<g filter="url(#filter0_d_1345_979)">
<rect x="295" y="264" width="245" height="48" rx="14" fill="white" fill-opacity="0.7" shape-rendering="crispEdges"/>
<path d="M340 296H339V281C339 280.735 338.895 280.48 338.707 280.293C338.52 280.105 338.265 280 338 280C337.735 280 337.48 280.105 337.293 280.293C337.105 280.48 337 280.735 337 281V296H335V285C335 284.735 334.895 284.48 334.707 284.293C334.52 284.105 334.265 284 334 284C333.735 284 333.48 284.105 333.293 284.293C333.105 284.48 333 284.735 333 285V296H331V289C331 288.735 330.895 288.48 330.707 288.293C330.52 288.105 330.265 288 330 288C329.735 288 329.48 288.105 329.293 288.293C329.105 288.48 329 288.735 329 289V296H327V293C327 292.735 326.895 292.48 326.707 292.293C326.52 292.105 326.265 292 326 292C325.735 292 325.48 292.105 325.293 292.293C325.105 292.48 325 292.735 325 293V296H323V279C323 278.735 322.895 278.48 322.707 278.293C322.52 278.105 322.265 278 322 278C321.735 278 321.48 278.105 321.293 278.293C321.105 278.48 321 278.735 321 279V297C321 297.265 321.105 297.52 321.293 297.707C321.48 297.895 321.735 298 322 298H340C340.265 298 340.52 297.895 340.707 297.707C340.895 297.52 341 297.265 341 297C341 296.735 340.895 296.48 340.707 296.293C340.52 296.105 340.265 296 340 296Z" fill="#3348BD"/>
<path d="M360.056 291.008H353.816L352.472 294H351.24L356.36 282.8H357.528L362.648 294H361.4L360.056 291.008ZM359.624 290.048L356.936 284.032L354.248 290.048H359.624ZM367.738 290.256H365.818V294H364.682V285.584H365.818V289.28H367.754L370.714 285.584H371.946L368.634 289.664L372.186 294H370.842L367.738 290.256ZM382.907 293.008V296.112H381.835V294H374.139V285.584H375.275V293.008H380.411V285.584H381.547V293.008H382.907ZM385.237 285.584H386.373V292.272L391.989 285.584H392.997V294H391.861V287.312L386.261 294H385.237V285.584ZM396.412 285.584H397.548V292.272L403.164 285.584H404.172V294H403.036V287.312L397.436 294H396.412V285.584Z" fill="#11173D"/>
<path d="M466.088 291.04C466.088 291.861 465.773 292.56 465.144 293.136C464.515 293.701 463.592 294.016 462.376 294.08V295.92H461.576V294.096C460.797 294.053 460.061 293.904 459.368 293.648C458.685 293.381 458.147 293.045 457.752 292.64L458.216 291.728C458.589 292.091 459.075 292.395 459.672 292.64C460.28 292.885 460.915 293.029 461.576 293.072V288.864C460.84 288.683 460.227 288.491 459.736 288.288C459.245 288.075 458.835 287.771 458.504 287.376C458.184 286.971 458.024 286.437 458.024 285.776C458.024 284.955 458.323 284.267 458.92 283.712C459.517 283.147 460.403 282.816 461.576 282.72V280.88H462.376V282.704C462.984 282.725 463.571 282.827 464.136 283.008C464.712 283.179 465.208 283.408 465.624 283.696L465.224 284.64C464.787 284.363 464.323 284.144 463.832 283.984C463.341 283.824 462.856 283.733 462.376 283.712V287.952C463.165 288.144 463.811 288.341 464.312 288.544C464.813 288.736 465.235 289.035 465.576 289.44C465.917 289.845 466.088 290.379 466.088 291.04ZM459.192 285.744C459.192 286.299 459.395 286.72 459.8 287.008C460.216 287.296 460.808 287.541 461.576 287.744V283.744C460.787 283.808 460.189 284.027 459.784 284.4C459.389 284.763 459.192 285.211 459.192 285.744ZM462.376 293.072C463.219 293.008 463.853 292.8 464.28 292.448C464.707 292.096 464.92 291.648 464.92 291.104C464.92 290.528 464.701 290.096 464.264 289.808C463.827 289.52 463.197 289.275 462.376 289.072V293.072ZM475.991 287.6C477.165 287.664 478.055 287.984 478.663 288.56C479.282 289.125 479.591 289.867 479.591 290.784C479.591 291.424 479.437 291.995 479.127 292.496C478.818 292.987 478.359 293.376 477.751 293.664C477.143 293.952 476.402 294.096 475.527 294.096C474.717 294.096 473.949 293.968 473.223 293.712C472.509 293.445 471.933 293.093 471.495 292.656L472.055 291.744C472.429 292.128 472.925 292.443 473.543 292.688C474.162 292.923 474.823 293.04 475.527 293.04C476.445 293.04 477.154 292.843 477.655 292.448C478.157 292.043 478.407 291.488 478.407 290.784C478.407 290.091 478.157 289.547 477.655 289.152C477.154 288.757 476.397 288.56 475.383 288.56H474.583V287.712L477.687 283.824H471.959V282.8H479.159V283.616L475.991 287.6ZM489.53 287.6C490.703 287.664 491.594 287.984 492.202 288.56C492.821 289.125 493.13 289.867 493.13 290.784C493.13 291.424 492.975 291.995 492.666 292.496C492.357 292.987 491.898 293.376 491.29 293.664C490.682 293.952 489.941 294.096 489.066 294.096C488.255 294.096 487.487 293.968 486.762 293.712C486.047 293.445 485.471 293.093 485.034 292.656L485.594 291.744C485.967 292.128 486.463 292.443 487.082 292.688C487.701 292.923 488.362 293.04 489.066 293.04C489.983 293.04 490.693 292.843 491.194 292.448C491.695 292.043 491.946 291.488 491.946 290.784C491.946 290.091 491.695 289.547 491.194 289.152C490.693 288.757 489.935 288.56 488.922 288.56H488.122V287.712L491.226 283.824H485.498V282.8H492.698V283.616L489.53 287.6ZM504.433 291.056H502.193V294H501.041V291.056H494.721V290.224L500.657 282.8H501.937L496.209 290.032H501.073V287.44H502.193V290.032H504.433V291.056ZM512.224 288.128C512.928 288.363 513.466 288.715 513.84 289.184C514.224 289.653 514.416 290.219 514.416 290.88C514.416 291.531 514.24 292.101 513.888 292.592C513.536 293.072 513.029 293.445 512.368 293.712C511.717 293.968 510.949 294.096 510.064 294.096C508.72 294.096 507.664 293.808 506.896 293.232C506.128 292.656 505.744 291.872 505.744 290.88C505.744 290.208 505.925 289.643 506.288 289.184C506.661 288.715 507.2 288.363 507.904 288.128C507.328 287.904 506.89 287.584 506.592 287.168C506.293 286.741 506.144 286.24 506.144 285.664C506.144 284.757 506.496 284.037 507.2 283.504C507.914 282.971 508.869 282.704 510.064 282.704C510.853 282.704 511.541 282.827 512.128 283.072C512.725 283.307 513.189 283.648 513.52 284.096C513.85 284.544 514.016 285.067 514.016 285.664C514.016 286.24 513.861 286.741 513.552 287.168C513.242 287.584 512.8 287.904 512.224 288.128ZM507.296 285.696C507.296 286.315 507.541 286.805 508.032 287.168C508.522 287.531 509.2 287.712 510.064 287.712C510.928 287.712 511.605 287.531 512.096 287.168C512.597 286.805 512.848 286.32 512.848 285.712C512.848 285.083 512.592 284.587 512.08 284.224C511.578 283.861 510.906 283.68 510.064 283.68C509.21 283.68 508.533 283.861 508.032 284.224C507.541 284.587 507.296 285.077 507.296 285.696ZM510.064 293.12C511.056 293.12 511.829 292.917 512.384 292.512C512.949 292.107 513.232 291.557 513.232 290.864C513.232 290.171 512.949 289.627 512.384 289.232C511.829 288.827 511.056 288.624 510.064 288.624C509.082 288.624 508.309 288.827 507.744 289.232C507.189 289.627 506.912 290.171 506.912 290.864C506.912 291.568 507.189 292.123 507.744 292.528C508.298 292.923 509.072 293.12 510.064 293.12Z" fill="#11173D"/>
</g>
<g filter="url(#filter1_d_1345_979)">
<rect x="8" y="8" width="245" height="48" rx="14" fill="white" fill-opacity="0.7" shape-rendering="crispEdges"/>
<path d="M36.6152 20C35.6072 20 34.769 20.8382 34.769 21.8462V39.3846C34.769 40.3926 35.6072 41.2308 36.6152 41.2308H38.4614V44L41.2306 42.1538L43.9998 44V37.3945C43.8724 37.4679 43.7367 37.5259 43.5955 37.5671C43.4967 37.78 43.3567 37.9712 43.1835 38.1297C43.0103 38.2881 42.8074 38.4106 42.5866 38.4902C42.3913 38.5539 42.1864 38.5833 41.981 38.5769C41.7226 38.5769 41.4641 38.5437 41.2306 38.4329C40.9942 38.5361 40.7379 38.5853 40.4801 38.5769C40.2734 38.5769 40.0712 38.5612 39.8746 38.4902C39.4291 38.3282 39.066 37.9962 38.8647 37.5671C38.7239 37.5256 38.5885 37.4677 38.4614 37.3945V39.3846H36.6152V21.8462H51.3844V39.3846H46.769C46.5242 39.3846 46.2894 39.4819 46.1163 39.655C45.9432 39.8281 45.846 40.0629 45.846 40.3077C45.846 40.5525 45.9432 40.7873 46.1163 40.9604C46.2894 41.1335 46.5242 41.2308 46.769 41.2308H51.3844C52.3924 41.2308 53.2306 40.3926 53.2306 39.3846V21.8462C53.2306 20.8382 52.3924 20 51.3844 20H36.6152ZM39.2118 24.6154C38.967 24.6383 38.7413 24.7575 38.5844 24.9468C38.4275 25.1361 38.3522 25.38 38.375 25.6248C38.3979 25.8696 38.5171 26.0953 38.7064 26.2522C38.8957 26.4091 39.1396 26.4844 39.3844 26.4615H48.6152C48.86 26.4615 49.0948 26.3643 49.2679 26.1912C49.441 26.0181 49.5383 25.7833 49.5383 25.5385C49.5383 25.2936 49.441 25.0589 49.2679 24.8857C49.0948 24.7126 48.86 24.6154 48.6152 24.6154H39.3844C39.3555 24.614 39.3266 24.614 39.2977 24.6154C39.2691 24.6141 39.2404 24.6141 39.2118 24.6154ZM39.2118 28.3077C38.967 28.3306 38.7413 28.4498 38.5844 28.6391C38.4275 28.8284 38.3522 29.0723 38.375 29.3171C38.3979 29.5619 38.5171 29.7876 38.7064 29.9445C38.8957 30.1014 39.1396 30.1767 39.3844 30.1538H45.846C46.0908 30.1538 46.3256 30.0566 46.4987 29.8835C46.6718 29.7104 46.769 29.4756 46.769 29.2308C46.769 28.986 46.6718 28.7512 46.4987 28.5781C46.3256 28.4049 46.0908 28.3077 45.846 28.3077H39.3844C39.3555 28.3063 39.3266 28.3063 39.2977 28.3077C39.2691 28.3064 39.2404 28.3064 39.2118 28.3077ZM41.2306 31.6825C41.0452 31.6827 40.8646 31.7413 40.7145 31.85C40.5644 31.9587 40.4523 32.112 40.3943 32.288C40.3564 32.3009 40.3149 32.3028 40.2789 32.3175C40.1229 32.2238 39.9412 32.1817 39.7599 32.1973C39.5786 32.2129 39.4068 32.2853 39.269 32.4043C39.1296 32.5207 39.0297 32.6776 38.9833 32.8532C38.9368 33.0288 38.946 33.2145 39.0097 33.3846C38.9847 33.4225 38.9746 33.4603 38.9515 33.5C38.7712 33.53 38.6048 33.6157 38.4755 33.7449C38.3462 33.8742 38.2606 34.0406 38.2306 34.2209C38.2009 34.3965 38.2267 34.577 38.3043 34.7373C38.3819 34.8975 38.5074 35.0297 38.6635 35.1154C38.67 35.1735 38.6515 35.2326 38.6635 35.2889C38.5521 35.4246 38.4842 35.5908 38.4687 35.7657C38.4532 35.9406 38.4909 36.1161 38.5767 36.2692C38.7558 36.5803 39.1121 36.7538 39.4712 36.7022C39.5173 36.7455 39.5644 36.7778 39.6152 36.8175C39.6244 37.1748 39.8524 37.5006 40.1921 37.6252C40.5281 37.748 40.9084 37.6298 41.1438 37.3649C41.178 37.3668 41.1955 37.3945 41.2306 37.3945C41.2684 37.3945 41.3081 37.3668 41.346 37.3649C41.4257 37.4549 41.5234 37.5271 41.6328 37.5769C41.7422 37.6267 41.8608 37.6529 41.981 37.6538C42.0807 37.6538 42.1712 37.6603 42.269 37.6252C42.435 37.5639 42.5788 37.4541 42.6817 37.3101C42.7845 37.1661 42.8418 36.9945 42.846 36.8175C42.8949 36.7788 42.9429 36.7455 42.99 36.7022C43.1652 36.727 43.3439 36.6991 43.5032 36.622C43.6625 36.5449 43.7952 36.4221 43.8844 36.2692C43.9705 36.116 44.0083 35.9403 43.9928 35.7652C43.9773 35.5901 43.9093 35.4238 43.7977 35.288C43.8106 35.2326 43.7893 35.1717 43.7977 35.1154C43.9543 35.0303 44.0804 34.8983 44.158 34.7378C44.2357 34.5773 44.2611 34.3966 44.2306 34.2209C44.2007 34.0406 44.1151 33.8741 43.9858 33.7448C43.8565 33.6155 43.69 33.5299 43.5097 33.5C43.4875 33.4594 43.4764 33.4234 43.4515 33.3846C43.5156 33.2144 43.5251 33.0284 43.4786 32.8526C43.4321 32.6767 43.332 32.5197 43.1921 32.4034C43.0544 32.2844 42.8825 32.212 42.7011 32.1966C42.5198 32.1812 42.3381 32.2235 42.1823 32.3175C42.1453 32.3028 42.1047 32.3009 42.0669 32.2889C42.009 32.1127 41.897 31.9592 41.7469 31.8504C41.5967 31.7415 41.4161 31.6827 41.2306 31.6825ZM41.2306 33.2978C42.0484 33.2978 42.702 33.9514 42.702 34.7692C42.702 35.5889 42.0493 36.2406 41.2306 36.2406C41.037 36.2417 40.8452 36.2044 40.6662 36.1309C40.4872 36.0573 40.3245 35.949 40.1877 35.8121C40.0508 35.6753 39.9425 35.5126 39.869 35.3336C39.7954 35.1546 39.7581 34.9628 39.7592 34.7692C39.7592 33.9505 40.4127 33.2978 41.2306 33.2978Z" fill="#3348BD"/>
<path d="M70.8 38.096C69.6907 38.096 68.6827 37.8507 67.776 37.36C66.88 36.8587 66.176 36.176 65.664 35.312C65.1627 34.448 64.912 33.4773 64.912 32.4C64.912 31.3227 65.1627 30.352 65.664 29.488C66.176 28.624 66.88 27.9467 67.776 27.456C68.6827 26.9547 69.6907 26.704 70.8 26.704C71.9093 26.704 72.9067 26.9493 73.792 27.44C74.688 27.9307 75.392 28.6133 75.904 29.488C76.416 30.352 76.672 31.3227 76.672 32.4C76.672 33.4773 76.416 34.4533 75.904 35.328C75.392 36.192 74.688 36.8693 73.792 37.36C72.9067 37.8507 71.9093 38.096 70.8 38.096ZM70.8 37.04C71.6853 37.04 72.4853 36.8427 73.2 36.448C73.9147 36.0427 74.4747 35.488 74.88 34.784C75.2853 34.0693 75.488 33.2747 75.488 32.4C75.488 31.5253 75.2853 30.736 74.88 30.032C74.4747 29.3173 73.9147 28.7627 73.2 28.368C72.4853 27.9627 71.6853 27.76 70.8 27.76C69.9147 27.76 69.1093 27.9627 68.384 28.368C67.6693 28.7627 67.104 29.3173 66.688 30.032C66.2827 30.736 66.08 31.5253 66.08 32.4C66.08 33.2747 66.2827 34.0693 66.688 34.784C67.104 35.488 67.6693 36.0427 68.384 36.448C69.1093 36.8427 69.9147 37.04 70.8 37.04ZM83.4654 29.792C84.244 29.792 84.9374 29.968 85.5454 30.32C86.164 30.6613 86.644 31.1467 86.9854 31.776C87.3267 32.3947 87.4974 33.104 87.4974 33.904C87.4974 34.7253 87.316 35.456 86.9534 36.096C86.6014 36.7253 86.1054 37.216 85.4654 37.568C84.8254 37.92 84.0894 38.096 83.2574 38.096C81.86 38.096 80.7774 37.6053 80.0094 36.624C79.2414 35.6427 78.8574 34.288 78.8574 32.56C78.8574 30.7573 79.1987 29.376 79.8814 28.416C80.5747 27.456 81.652 26.8053 83.1134 26.464L86.8894 25.6L87.0814 26.64L83.5294 27.456C82.324 27.7227 81.4387 28.1973 80.8734 28.88C80.308 29.552 79.9987 30.5493 79.9454 31.872C80.2867 31.2213 80.7614 30.7147 81.3694 30.352C81.9774 29.9787 82.676 29.792 83.4654 29.792ZM83.2894 37.152C83.876 37.152 84.3987 37.0187 84.8574 36.752C85.3267 36.4747 85.6894 36.0907 85.9454 35.6C86.212 35.1093 86.3454 34.5547 86.3454 33.936C86.3454 33.3173 86.2174 32.7733 85.9614 32.304C85.7054 31.8347 85.3427 31.472 84.8734 31.216C84.4147 30.9493 83.8867 30.816 83.2894 30.816C82.692 30.816 82.1587 30.9493 81.6894 31.216C81.2307 31.472 80.868 31.8347 80.6014 32.304C80.3454 32.7733 80.2174 33.3173 80.2174 33.936C80.2174 34.5547 80.3454 35.1093 80.6014 35.6C80.868 36.0907 81.236 36.4747 81.7054 36.752C82.1747 37.0187 82.7027 37.152 83.2894 37.152ZM96.9254 29.584V38H95.7894V30.592H91.7574L91.6454 32.672C91.56 34.4213 91.3574 35.7653 91.0374 36.704C90.7174 37.6427 90.1467 38.112 89.3254 38.112C89.1014 38.112 88.8294 38.0693 88.5094 37.984L88.5894 37.008C88.7814 37.0507 88.9147 37.072 88.9894 37.072C89.4267 37.072 89.7574 36.8693 89.9814 36.464C90.2054 36.0587 90.3547 35.5573 90.4294 34.96C90.504 34.3627 90.568 33.5733 90.6214 32.592L90.7654 29.584H96.9254ZM100.315 29.584H101.451V36.272L107.067 29.584H108.075V38H106.939V31.312L101.339 38H100.315V29.584ZM117.442 30.592H112.626V38H111.49V29.584H117.442V30.592ZM122.14 29.52C123.239 29.52 124.081 29.7973 124.668 30.352C125.255 30.896 125.548 31.7067 125.548 32.784V38H124.46V36.688C124.204 37.1253 123.825 37.4667 123.324 37.712C122.833 37.9573 122.247 38.08 121.564 38.08C120.625 38.08 119.879 37.856 119.324 37.408C118.769 36.96 118.492 36.368 118.492 35.632C118.492 34.9173 118.748 34.3413 119.26 33.904C119.783 33.4667 120.609 33.248 121.74 33.248H124.412V32.736C124.412 32.0107 124.209 31.4613 123.804 31.088C123.399 30.704 122.807 30.512 122.028 30.512C121.495 30.512 120.983 30.6027 120.492 30.784C120.001 30.9547 119.58 31.1947 119.228 31.504L118.716 30.656C119.143 30.2933 119.655 30.016 120.252 29.824C120.849 29.6213 121.479 29.52 122.14 29.52ZM121.74 37.184C122.38 37.184 122.929 37.04 123.388 36.752C123.847 36.4533 124.188 36.0267 124.412 35.472V34.096H121.772C120.332 34.096 119.612 34.5973 119.612 35.6C119.612 36.0907 119.799 36.48 120.172 36.768C120.545 37.0453 121.068 37.184 121.74 37.184ZM137.5 37.008V40.112H136.428V38H128.732V29.584H129.868V37.008H135.004V29.584H136.14V37.008H137.5ZM139.83 29.584H140.966V36.272L146.582 29.584H147.59V38H146.454V31.312L140.854 38H139.83V29.584ZM151.005 29.584H152.141V36.272L157.757 29.584H158.765V38H157.629V31.312L152.029 38H151.005V29.584Z" fill="#11173D"/>
<path d="M184.088 35.04C184.088 35.8613 183.773 36.56 183.144 37.136C182.515 37.7013 181.592 38.016 180.376 38.08V39.92H179.576V38.096C178.797 38.0533 178.061 37.904 177.368 37.648C176.685 37.3813 176.147 37.0453 175.752 36.64L176.216 35.728C176.589 36.0907 177.075 36.3947 177.672 36.64C178.28 36.8853 178.915 37.0293 179.576 37.072V32.864C178.84 32.6827 178.227 32.4907 177.736 32.288C177.245 32.0747 176.835 31.7707 176.504 31.376C176.184 30.9707 176.024 30.4373 176.024 29.776C176.024 28.9547 176.323 28.2667 176.92 27.712C177.517 27.1467 178.403 26.816 179.576 26.72V24.88H180.376V26.704C180.984 26.7253 181.571 26.8267 182.136 27.008C182.712 27.1787 183.208 27.408 183.624 27.696L183.224 28.64C182.787 28.3627 182.323 28.144 181.832 27.984C181.341 27.824 180.856 27.7333 180.376 27.712V31.952C181.165 32.144 181.811 32.3413 182.312 32.544C182.813 32.736 183.235 33.0347 183.576 33.44C183.917 33.8453 184.088 34.3787 184.088 35.04ZM177.192 29.744C177.192 30.2987 177.395 30.72 177.8 31.008C178.216 31.296 178.808 31.5413 179.576 31.744V27.744C178.787 27.808 178.189 28.0267 177.784 28.4C177.389 28.7627 177.192 29.2107 177.192 29.744ZM180.376 37.072C181.219 37.008 181.853 36.8 182.28 36.448C182.707 36.096 182.92 35.648 182.92 35.104C182.92 34.528 182.701 34.096 182.264 33.808C181.827 33.52 181.197 33.2747 180.376 33.072V37.072ZM193.287 26.8V38H192.135V27.824H189.495V26.8H193.287ZM208.12 36.976V38H200.264V37.184L204.92 32.624C205.507 32.048 205.901 31.552 206.104 31.136C206.317 30.7093 206.424 30.2827 206.424 29.856C206.424 29.1947 206.195 28.6827 205.736 28.32C205.288 27.9467 204.643 27.76 203.8 27.76C202.488 27.76 201.469 28.176 200.744 29.008L199.928 28.304C200.365 27.792 200.92 27.3973 201.592 27.12C202.275 26.8427 203.043 26.704 203.896 26.704C205.037 26.704 205.939 26.976 206.6 27.52C207.272 28.0533 207.608 28.7893 207.608 29.728C207.608 30.304 207.48 30.8587 207.224 31.392C206.968 31.9253 206.483 32.5387 205.768 33.232L201.96 36.976H208.12ZM214.127 38.096C213.263 38.096 212.49 37.8667 211.807 37.408C211.135 36.9493 210.607 36.2933 210.223 35.44C209.85 34.576 209.663 33.5627 209.663 32.4C209.663 31.2373 209.85 30.2293 210.223 29.376C210.607 28.512 211.135 27.8507 211.807 27.392C212.49 26.9333 213.263 26.704 214.127 26.704C214.991 26.704 215.759 26.9333 216.431 27.392C217.114 27.8507 217.647 28.512 218.031 29.376C218.415 30.2293 218.607 31.2373 218.607 32.4C218.607 33.5627 218.415 34.576 218.031 35.44C217.647 36.2933 217.114 36.9493 216.431 37.408C215.759 37.8667 214.991 38.096 214.127 38.096ZM214.127 37.04C214.778 37.04 215.349 36.8587 215.839 36.496C216.341 36.1333 216.73 35.6053 217.007 34.912C217.285 34.2187 217.423 33.3813 217.423 32.4C217.423 31.4187 217.285 30.5813 217.007 29.888C216.73 29.1947 216.341 28.6667 215.839 28.304C215.349 27.9413 214.778 27.76 214.127 27.76C213.477 27.76 212.901 27.9413 212.399 28.304C211.909 28.6667 211.525 29.1947 211.247 29.888C210.97 30.5813 210.831 31.4187 210.831 32.4C210.831 33.3813 210.97 34.2187 211.247 34.912C211.525 35.6053 211.909 36.1333 212.399 36.496C212.901 36.8587 213.477 37.04 214.127 37.04ZM228.196 26.8V27.616L223.508 38H222.26L226.868 27.824H221.108V29.92H219.972V26.8H228.196Z" fill="#11173D"/>
</g>
</g>
<defs>
<filter id="filter0_d_1345_979" x="287" y="260" width="261" height="64" filterUnits="userSpaceOnUse" color-interpolation-filters="sRGB">
<feFlood flood-opacity="0" result="BackgroundImageFix"/>
<feColorMatrix in="SourceAlpha" type="matrix" values="0 0 0 0 0 0 0 0 0 0 0 0 0 0 0 0 0 0 127 0" result="hardAlpha"/>
<feOffset dy="4"/>
<feGaussianBlur stdDeviation="4"/>
<feComposite in2="hardAlpha" operator="out"/>
<feColorMatrix type="matrix" values="0 0 0 0 0.054902 0 0 0 0 0.121569 0 0 0 0 0.207843 0 0 0 0.16 0"/>
<feBlend mode="normal" in2="BackgroundImageFix" result="effect1_dropShadow_1345_979"/>
<feBlend mode="normal" in="SourceGraphic" in2="effect1_dropShadow_1345_979" result="shape"/>
</filter>
<filter id="filter1_d_1345_979" x="0" y="4" width="261" height="64" filterUnits="userSpaceOnUse" color-interpolation-filters="sRGB">
<feFlood flood-opacity="0" result="BackgroundImageFix"/>
<feColorMatrix in="SourceAlpha" type="matrix" values="0 0 0 0 0 0 0 0 0 0 0 0 0 0 0 0 0 0 127 0" result="hardAlpha"/>
<feOffset dy="4"/>
<feGaussianBlur stdDeviation="4"/>
<feComposite in2="hardAlpha" operator="out"/>
<feColorMatrix type="matrix" values="0 0 0 0 0.054902 0 0 0 0 0.121569 0 0 0 0 0.207843 0 0 0 0.16 0"/>
<feBlend mode="normal" in2="BackgroundImageFix" result="effect1_dropShadow_1345_979"/>
<feBlend mode="normal" in="SourceGraphic" in2="effect1_dropShadow_1345_979" result="shape"/>
</filter>
<linearGradient id="paint0_linear_1345_979" x1="0" y1="70" x2="0" y2="249" gradientUnits="userSpaceOnUse">
<stop stop-color="#999EBA"/>
<stop offset="1" stop-color="#999EBA" stop-opacity="0"/>
</linearGradient>
<clipPath id="clip0_1345_979">
<rect width="548" height="320" fill="white"/>
</clipPath>
</defs>
</svg>
