<svg width="548" height="320" viewBox="0 0 548 320" fill="none" xmlns="http://www.w3.org/2000/svg">
<path d="M274.019 320C179.154 320 102.252 275.607 102.252 220.845C102.252 166.084 179.154 121.69 274.019 121.69C368.883 121.69 445.786 166.084 445.786 220.845C445.786 275.607 368.883 320 274.019 320Z" fill="#F8F8FB"/>
<path d="M314.221 294.517L420.758 233.012C422.505 232.004 422.505 230.369 420.758 229.354L266.741 140.44C265.761 139.94 264.676 139.679 263.576 139.679C262.476 139.679 261.391 139.94 260.411 140.44L153.904 201.931C152.157 202.938 152.157 204.573 153.904 205.581L307.891 294.517C308.872 295.014 309.956 295.273 311.056 295.273C312.156 295.273 313.24 295.014 314.221 294.517V294.517Z" fill="#E0E0E0"/>
<path d="M414.183 224.547C414.097 225.706 413.741 226.829 413.142 227.825C412.543 228.821 411.718 229.662 410.734 230.28L314.08 286.083C313.009 286.624 311.827 286.906 310.628 286.906C309.428 286.906 308.246 286.624 307.175 286.083L163.929 203.386C162.889 202.834 162.019 202.009 161.412 201C160.805 199.991 160.485 198.835 160.485 197.658C160.485 196.48 160.805 195.325 161.412 194.315C162.019 193.306 162.889 192.481 163.929 191.929L260.584 136.104C261.653 135.559 262.836 135.275 264.036 135.275C265.236 135.275 266.419 135.559 267.488 136.104L410.734 218.822C411.718 219.439 412.543 220.279 413.142 221.273C413.741 222.268 414.097 223.389 414.183 224.547Z" fill="#37474F"/>
<path d="M310.594 279.417V286.881C311.795 286.908 312.982 286.625 314.042 286.06L410.734 230.28C411.744 229.747 412.595 228.956 413.2 227.987C413.804 227.018 414.142 225.907 414.178 224.765C414.213 223.624 413.946 222.493 413.403 221.488C412.859 220.484 412.06 219.641 411.085 219.046C412.63 220.151 412.511 221.778 410.734 222.778L314.072 278.588C313.004 279.161 311.805 279.447 310.594 279.417V279.417Z" fill="#263238"/>
<path d="M417.422 218.957C418.383 218.303 419.176 217.433 419.737 216.417C420.299 215.4 420.613 214.265 420.654 213.105V97.745C420.589 96.5488 420.242 95.3848 419.643 94.3474C419.044 93.31 418.209 92.4282 417.206 91.7736L273.96 9.07729C272.929 8.52908 271.783 8.23187 270.616 8.20982C269.449 8.18777 268.293 8.44151 267.242 8.9504C266.283 9.6049 265.491 10.4754 264.929 11.4917C264.368 12.5081 264.053 13.6421 264.01 14.8024V130.132C264.075 131.329 264.421 132.493 265.02 133.53C265.619 134.568 266.455 135.449 267.458 136.104L410.734 218.822C411.761 219.367 412.901 219.664 414.062 219.687C415.224 219.71 416.375 219.46 417.422 218.957V218.957Z" fill="#455A64"/>
<path d="M411.137 219.032C412.128 219.474 413.204 219.696 414.29 219.68C415.375 219.665 416.444 219.413 417.422 218.942C418.383 218.289 419.176 217.419 419.737 216.402C420.299 215.385 420.613 214.251 420.654 213.09V97.7451C420.616 96.5441 420.266 95.3737 419.639 94.3489L413.175 98.081C413.793 99.107 414.139 100.273 414.183 101.47V216.83C414.183 218.867 412.854 219.785 411.137 219.032Z" fill="#263238"/>
<path d="M414.183 101.484V216.829C414.183 219.069 412.638 219.92 410.734 218.822L267.488 136.104C266.484 135.449 265.649 134.568 265.05 133.53C264.451 132.493 264.104 131.329 264.039 130.132V14.8023C264.039 12.6078 265.577 11.7121 267.488 12.8168L410.734 95.5056C411.738 96.1619 412.573 97.045 413.172 98.0836C413.771 99.1222 414.117 100.287 414.183 101.484Z" fill="#37474F"/>
<path d="M410.734 222.801L314.08 278.611C313.009 279.152 311.827 279.434 310.627 279.434C309.428 279.434 308.246 279.152 307.175 278.611L163.929 195.915C162.026 194.81 162.026 193.026 163.929 191.929L260.583 136.104C261.653 135.559 262.836 135.275 264.036 135.275C265.236 135.275 266.419 135.559 267.488 136.104L410.734 218.822C412.637 219.92 412.637 221.704 410.734 222.801Z" fill="#455A64"/>
<path d="M408.875 99.9394L270.376 19.9974C269.234 19.3406 268.301 19.878 268.301 21.1992V127.617C268.341 128.335 268.55 129.034 268.91 129.656C269.271 130.279 269.773 130.808 270.376 131.2L408.875 211.142C410.017 211.798 410.95 211.261 410.95 209.94V103.522C410.91 102.804 410.702 102.105 410.341 101.483C409.981 100.86 409.478 100.331 408.875 99.9394Z" fill="#407BFF"/>
<path opacity="0.4" d="M408.875 99.9394L270.376 19.9974C269.234 19.3406 268.301 19.878 268.301 21.1992V127.617C268.341 128.335 268.55 129.034 268.91 129.656C269.271 130.279 269.773 130.808 270.376 131.2L408.875 211.142C410.017 211.798 410.95 211.261 410.95 209.94V103.522C410.91 102.804 410.702 102.105 410.341 101.483C409.981 100.86 409.478 100.331 408.875 99.9394Z" fill="#11173D"/>
<path d="M399.516 219.815L265.756 142.605C265.223 142.333 264.632 142.19 264.032 142.19C263.433 142.19 262.842 142.333 262.308 142.605L256.031 146.225C255.083 146.778 255.083 147.666 256.031 148.218L389.805 225.421C390.339 225.693 390.929 225.836 391.529 225.836C392.128 225.836 392.719 225.693 393.253 225.421L399.516 221.808C400.464 221.256 400.464 220.368 399.516 219.815Z" fill="#37474F"/>
<path d="M383.333 229.16L249.581 151.943C249.047 151.67 248.457 151.528 247.857 151.528C247.258 151.528 246.667 151.67 246.133 151.943L207.513 174.238C206.558 174.791 206.558 175.687 207.513 176.231L341.123 253.352C341.659 253.622 342.251 253.763 342.851 253.763C343.451 253.763 344.043 253.622 344.579 253.352L383.326 231.146C384.281 230.601 384.288 229.705 383.333 229.16Z" fill="#263238"/>
<path d="M265.809 184.778L261.599 182.345C261.42 182.24 261.412 182.076 261.599 181.971L266.018 179.396C266.118 179.348 266.228 179.324 266.339 179.324C266.45 179.324 266.559 179.348 266.66 179.396L270.877 181.83C271.049 181.934 271.056 182.098 270.877 182.195L266.398 184.763C266.306 184.805 266.206 184.829 266.105 184.831C266.004 184.834 265.903 184.816 265.809 184.778ZM273.027 175.746L277.236 178.18C277.274 178.193 277.307 178.218 277.33 178.251C277.353 178.283 277.366 178.322 277.366 178.362C277.366 178.403 277.353 178.442 277.33 178.474C277.307 178.507 277.274 178.532 277.236 178.545L272.758 181.113C272.658 181.161 272.548 181.186 272.437 181.186C272.326 181.186 272.216 181.161 272.116 181.113L267.899 178.68C267.858 178.668 267.822 178.644 267.797 178.61C267.772 178.576 267.758 178.535 267.758 178.493C267.758 178.451 267.772 178.41 267.797 178.376C267.822 178.343 267.858 178.318 267.899 178.306L272.377 175.739C272.477 175.693 272.586 175.67 272.695 175.672C272.805 175.673 272.913 175.698 273.012 175.746H273.027ZM286.634 183.599L293.755 187.711C293.934 187.816 293.941 187.988 293.755 188.085L289.276 190.652C289.176 190.7 289.066 190.725 288.955 190.725C288.844 190.725 288.735 190.7 288.634 190.652L281.506 186.54C281.327 186.435 281.327 186.271 281.506 186.166L285.985 183.606C286.082 183.554 286.191 183.527 286.301 183.526C286.411 183.524 286.52 183.549 286.619 183.599H286.634ZM279.17 179.299L283.387 181.733C283.566 181.837 283.566 182.001 283.387 182.098L278.908 184.666C278.808 184.714 278.698 184.739 278.587 184.739C278.476 184.739 278.367 184.714 278.266 184.666L274.057 182.233C273.878 182.128 273.878 181.964 274.057 181.859L278.535 179.292C278.633 179.244 278.741 179.22 278.85 179.222C278.958 179.223 279.065 179.249 279.162 179.299H279.17ZM295.666 188.838L299.875 191.264C300.055 191.369 300.055 191.541 299.875 191.638L295.397 194.205C295.297 194.253 295.187 194.278 295.076 194.278C294.965 194.278 294.855 194.253 294.755 194.205L290.545 191.779C290.366 191.675 290.366 191.511 290.545 191.406L295.024 188.838C295.124 188.791 295.234 188.766 295.345 188.766C295.456 188.766 295.565 188.791 295.666 188.838V188.838ZM301.816 192.391L306.033 194.825C306.071 194.838 306.104 194.863 306.127 194.896C306.15 194.928 306.163 194.968 306.163 195.008C306.163 195.048 306.15 195.087 306.127 195.12C306.104 195.152 306.071 195.177 306.033 195.191L301.637 197.758C301.538 197.81 301.428 197.837 301.316 197.837C301.204 197.837 301.094 197.81 300.995 197.758L296.785 195.332C296.606 195.228 296.606 195.064 296.785 194.959L301.226 192.391C301.323 192.348 301.427 192.326 301.533 192.326C301.638 192.326 301.742 192.348 301.839 192.391H301.816ZM284.365 202.841L280.155 200.408C279.976 200.304 279.976 200.139 280.155 200.042L284.596 197.475C284.696 197.427 284.806 197.402 284.917 197.402C285.028 197.402 285.138 197.427 285.238 197.475L289.455 199.908C289.496 199.92 289.532 199.944 289.557 199.978C289.582 200.011 289.596 200.052 289.596 200.095C289.596 200.137 289.582 200.178 289.557 200.211C289.532 200.245 289.496 200.27 289.455 200.281L285.014 202.849C284.915 202.893 284.808 202.915 284.7 202.914C284.592 202.913 284.485 202.888 284.387 202.841H284.365ZM290.523 206.394L286.305 203.961C286.126 203.857 286.126 203.692 286.305 203.595L290.769 201.043C290.869 200.995 290.979 200.97 291.09 200.97C291.201 200.97 291.311 200.995 291.411 201.043L295.621 203.476C295.8 203.58 295.8 203.745 295.621 203.849L291.18 206.417C291.079 206.46 290.97 206.48 290.86 206.476C290.75 206.473 290.643 206.445 290.545 206.394H290.523ZM296.673 209.947L292.463 207.514C292.426 207.501 292.393 207.476 292.37 207.443C292.347 207.41 292.334 207.371 292.334 207.331C292.334 207.291 292.347 207.252 292.37 207.219C292.393 207.186 292.426 207.162 292.463 207.148L296.942 204.581C297.041 204.529 297.151 204.502 297.263 204.502C297.375 204.502 297.485 204.529 297.584 204.581L301.779 207.014C301.958 207.118 301.958 207.283 301.779 207.387L297.3 209.955C297.205 209.996 297.101 210.016 296.997 210.015C296.893 210.014 296.79 209.991 296.696 209.947H296.673ZM302.831 213.5L298.621 211.067C298.442 210.97 298.435 210.798 298.621 210.701L303.1 208.134C303.2 208.086 303.31 208.061 303.421 208.061C303.532 208.061 303.642 208.086 303.742 208.134L307.952 210.559C308.131 210.664 308.138 210.828 307.952 210.933L303.511 213.5C303.408 213.55 303.296 213.576 303.182 213.576C303.068 213.576 302.956 213.55 302.854 213.5H302.831ZM271.952 188.353L267.734 185.92C267.694 185.908 267.658 185.884 267.633 185.85C267.607 185.817 267.594 185.776 267.594 185.733C267.594 185.691 267.607 185.65 267.633 185.617C267.658 185.583 267.694 185.558 267.734 185.547L272.213 182.987C272.312 182.935 272.422 182.908 272.534 182.908C272.646 182.908 272.756 182.935 272.855 182.987L277.005 185.368C277.184 185.472 277.184 185.636 277.005 185.733L272.564 188.301C272.471 188.353 272.369 188.384 272.263 188.393C272.158 188.402 272.052 188.389 271.952 188.353V188.353ZM278.229 199.311L268.839 193.884C268.66 193.78 268.66 193.616 268.839 193.519L279.632 187.286C279.733 187.238 279.842 187.213 279.953 187.213C280.064 187.213 280.174 187.238 280.274 187.286L285.134 190.092C285.313 190.197 285.313 190.361 285.134 190.466L279.416 193.765C279.378 193.778 279.346 193.803 279.322 193.836C279.299 193.869 279.287 193.908 279.287 193.948C279.287 193.988 279.299 194.027 279.322 194.06C279.346 194.092 279.378 194.117 279.416 194.131L283.305 196.37C283.484 196.474 283.484 196.639 283.305 196.743L278.826 199.303C278.732 199.345 278.629 199.366 278.526 199.363C278.423 199.361 278.321 199.335 278.229 199.288V199.311ZM307.997 195.967L312.206 198.4C312.244 198.414 312.277 198.438 312.3 198.471C312.323 198.504 312.335 198.543 312.335 198.583C312.335 198.623 312.323 198.662 312.3 198.695C312.277 198.728 312.244 198.753 312.206 198.766L307.765 201.334C307.665 201.381 307.555 201.406 307.444 201.406C307.333 201.406 307.223 201.381 307.123 201.334L302.906 198.9C302.865 198.889 302.83 198.864 302.804 198.831C302.779 198.797 302.765 198.756 302.765 198.714C302.765 198.672 302.779 198.63 302.804 198.597C302.83 198.563 302.865 198.539 302.906 198.527L307.347 195.959C307.447 195.908 307.558 195.88 307.67 195.878C307.783 195.875 307.894 195.898 307.997 195.944V195.967ZM314.147 199.52L318.364 201.953C318.544 202.058 318.544 202.222 318.364 202.319L313.886 204.887C313.786 204.934 313.676 204.959 313.565 204.959C313.454 204.959 313.344 204.934 313.244 204.887L309.034 202.453C308.855 202.349 308.855 202.185 309.034 202.08L313.513 199.512C313.61 199.46 313.718 199.432 313.828 199.429C313.938 199.426 314.048 199.45 314.147 199.497V199.52ZM346.579 238.364C346.479 238.411 346.369 238.436 346.258 238.436C346.147 238.436 346.038 238.411 345.937 238.364L341.727 235.93C341.548 235.826 341.541 235.662 341.727 235.557L346.206 232.997C346.305 232.945 346.415 232.918 346.527 232.918C346.639 232.918 346.749 232.945 346.848 232.997L351.058 235.43C351.237 235.535 351.244 235.699 351.058 235.796L346.579 238.364ZM363.389 227.914L367.598 230.34C367.778 230.444 367.785 230.608 367.598 230.713L363.157 233.281C363.057 233.328 362.947 233.353 362.836 233.353C362.725 233.353 362.616 233.328 362.515 233.281L358.306 230.847C358.126 230.75 358.119 230.579 358.306 230.481L362.784 227.914C362.878 227.868 362.982 227.845 363.086 227.845C363.191 227.845 363.294 227.868 363.389 227.914V227.914ZM354.544 235.632C354.444 235.683 354.334 235.71 354.223 235.71C354.111 235.71 354.001 235.683 353.902 235.632L349.692 233.198C349.513 233.094 349.513 232.93 349.692 232.833L354.17 230.265C354.269 230.213 354.38 230.186 354.491 230.186C354.603 230.186 354.713 230.213 354.812 230.265L359.022 232.698C359.201 232.803 359.201 232.967 359.022 233.072L354.544 235.632ZM336.346 240.155L332.136 237.722C332.098 237.708 332.065 237.684 332.042 237.651C332.019 237.618 332.007 237.579 332.007 237.539C332.007 237.499 332.019 237.46 332.042 237.427C332.065 237.394 332.098 237.369 332.136 237.356L336.614 234.788C336.715 234.741 336.824 234.716 336.935 234.716C337.046 234.716 337.156 234.741 337.256 234.788L341.466 237.214C341.645 237.319 341.645 237.483 341.466 237.587L336.988 240.155C336.889 240.205 336.779 240.233 336.668 240.235C336.557 240.238 336.447 240.215 336.346 240.17V240.155ZM343.146 243.716C343.045 243.763 342.936 243.788 342.825 243.788C342.714 243.788 342.604 243.763 342.504 243.716L338.294 241.282C338.115 241.185 338.107 241.014 338.294 240.916L342.69 238.364C342.791 238.316 342.9 238.291 343.011 238.291C343.122 238.291 343.232 238.316 343.332 238.364L347.542 240.79C347.721 240.894 347.729 241.058 347.542 241.163L343.146 243.716ZM357.231 224.353L361.448 226.787C361.489 226.798 361.524 226.823 361.55 226.856C361.575 226.89 361.589 226.931 361.589 226.973C361.589 227.015 361.575 227.056 361.55 227.09C361.524 227.124 361.489 227.148 361.448 227.16L357.007 229.728C356.906 229.775 356.797 229.8 356.686 229.8C356.575 229.8 356.465 229.775 356.365 229.728L352.155 227.294C351.976 227.19 351.976 227.026 352.155 226.928L356.634 224.361C356.727 224.318 356.83 224.297 356.933 224.298C357.036 224.299 357.138 224.323 357.231 224.368V224.353ZM326.463 206.588L330.673 209.022C330.852 209.126 330.852 209.29 330.673 209.388L326.194 211.955C326.095 212.007 325.985 212.034 325.873 212.034C325.762 212.034 325.652 212.007 325.552 211.955L321.343 209.522C321.163 209.417 321.163 209.253 321.343 209.149L325.821 206.588C325.921 206.539 326.032 206.515 326.144 206.517C326.256 206.52 326.365 206.549 326.463 206.603V206.588ZM351.095 220.77L355.305 223.204C355.484 223.308 355.484 223.473 355.305 223.577L350.864 226.137C350.765 226.189 350.654 226.216 350.543 226.216C350.431 226.216 350.321 226.189 350.222 226.137L346.004 223.704C345.825 223.599 345.825 223.435 346.004 223.338L350.446 220.77C350.548 220.731 350.658 220.714 350.768 220.722C350.878 220.73 350.984 220.762 351.08 220.815L351.095 220.77ZM320.298 203.05L324.515 205.521C324.694 205.626 324.702 205.79 324.515 205.887L320.074 208.455C319.975 208.506 319.864 208.533 319.753 208.533C319.641 208.533 319.531 208.506 319.432 208.455L315.222 206.021C315.043 205.917 315.035 205.752 315.222 205.648L319.7 203.088C319.791 203.037 319.891 203.008 319.995 203.001C320.098 202.995 320.202 203.012 320.298 203.05V203.05ZM332.606 210.156L336.816 212.59C336.995 212.694 337.003 212.858 336.816 212.963L332.337 215.523C332.238 215.575 332.128 215.602 332.016 215.602C331.905 215.602 331.795 215.575 331.696 215.523L327.486 213.09C327.307 212.985 327.299 212.821 327.486 212.717L331.927 210.156C332.032 210.097 332.15 210.065 332.27 210.065C332.391 210.065 332.509 210.097 332.614 210.156H332.606ZM338.772 213.732L342.981 216.165C343.161 216.27 343.161 216.434 342.981 216.538L338.503 219.099C338.404 219.15 338.294 219.177 338.182 219.177C338.07 219.177 337.96 219.15 337.861 219.099L333.651 216.665C333.472 216.561 333.472 216.396 333.651 216.299L338.13 213.732C338.229 213.68 338.339 213.653 338.451 213.653C338.562 213.653 338.673 213.68 338.772 213.732ZM344.93 217.262L349.132 219.703C349.311 219.808 349.319 219.972 349.132 220.076L344.691 222.637C344.592 222.688 344.482 222.715 344.37 222.715C344.258 222.715 344.148 222.688 344.049 222.637L339.839 220.203C339.66 220.099 339.652 219.935 339.839 219.837L344.28 217.27C344.381 217.22 344.492 217.193 344.604 217.192C344.716 217.19 344.828 217.215 344.93 217.262ZM315.17 220.606L310.96 218.18C310.781 218.076 310.773 217.912 310.96 217.807L315.386 215.225C315.486 215.177 315.596 215.152 315.707 215.152C315.818 215.152 315.928 215.177 316.028 215.225L320.238 217.65C320.417 217.755 320.425 217.919 320.238 218.024L315.759 220.591C315.666 220.635 315.565 220.659 315.462 220.661C315.36 220.664 315.257 220.645 315.162 220.606H315.17ZM259.412 167.894L263.622 170.32C263.801 170.424 263.808 170.588 263.622 170.693L259.18 173.261C259.08 173.308 258.971 173.333 258.859 173.333C258.748 173.333 258.639 173.308 258.539 173.261L254.329 170.827C254.15 170.73 254.142 170.559 254.329 170.462L258.77 167.894C258.868 167.843 258.977 167.817 259.087 167.817C259.197 167.817 259.306 167.843 259.404 167.894H259.412ZM266.876 172.193L271.034 174.627C271.071 174.64 271.104 174.665 271.127 174.698C271.15 174.73 271.163 174.769 271.163 174.809C271.163 174.85 271.15 174.889 271.127 174.921C271.104 174.954 271.071 174.979 271.034 174.992L266.592 177.56C266.492 177.608 266.383 177.633 266.271 177.633C266.16 177.633 266.051 177.608 265.95 177.56L261.741 175.134C261.562 175.03 261.562 174.865 261.741 174.761L266.219 172.193C266.318 172.147 266.427 172.122 266.536 172.122C266.646 172.122 266.754 172.147 266.854 172.193H266.876ZM253.276 164.333L257.486 166.767C257.665 166.871 257.665 167.035 257.486 167.14L253.008 169.708C252.907 169.755 252.798 169.78 252.687 169.78C252.576 169.78 252.466 169.755 252.366 169.708L248.156 167.274C247.977 167.17 247.977 167.006 248.156 166.909L252.634 164.341C252.731 164.295 252.836 164.271 252.943 164.27C253.05 164.269 253.156 164.29 253.254 164.333H253.276ZM286.201 196.564L281.991 194.131C281.953 194.117 281.921 194.092 281.898 194.06C281.874 194.027 281.862 193.988 281.862 193.948C281.862 193.908 281.874 193.869 281.898 193.836C281.921 193.803 281.953 193.778 281.991 193.765L286.47 191.197C286.57 191.149 286.68 191.125 286.791 191.125C286.902 191.125 287.011 191.149 287.112 191.197L291.329 193.631C291.369 193.642 291.405 193.667 291.431 193.7C291.456 193.734 291.47 193.775 291.47 193.817C291.47 193.859 291.456 193.9 291.431 193.934C291.405 193.968 291.369 193.992 291.329 194.004L286.888 196.571C286.781 196.625 286.663 196.653 286.543 196.651C286.424 196.65 286.306 196.62 286.201 196.564ZM246.454 160.788C246.554 160.74 246.664 160.715 246.775 160.715C246.886 160.715 246.996 160.74 247.096 160.788L251.306 163.221C251.485 163.326 251.492 163.49 251.306 163.594L246.864 166.162C246.764 166.21 246.655 166.235 246.543 166.235C246.432 166.235 246.323 166.21 246.223 166.162L242.013 163.729C241.834 163.624 241.826 163.46 242.013 163.363L246.454 160.788ZM309.004 217.061L304.794 214.635C304.615 214.53 304.615 214.359 304.794 214.262L309.273 211.694C309.373 211.646 309.483 211.621 309.594 211.621C309.705 211.621 309.815 211.646 309.915 211.694L314.125 214.12C314.304 214.224 314.304 214.389 314.125 214.493L309.646 217.061C309.545 217.107 309.435 217.131 309.324 217.13C309.213 217.128 309.104 217.102 309.004 217.053V217.061ZM233.533 173.485L229.316 171.051C229.278 171.038 229.246 171.013 229.222 170.98C229.199 170.948 229.187 170.908 229.187 170.868C229.187 170.828 229.199 170.789 229.222 170.756C229.246 170.724 229.278 170.699 229.316 170.685L233.795 168.118C233.895 168.07 234.004 168.045 234.116 168.045C234.227 168.045 234.336 168.07 234.436 168.118L238.646 170.544C238.825 170.648 238.825 170.812 238.646 170.917L234.168 173.485C234.069 173.533 233.96 173.558 233.85 173.557C233.739 173.555 233.631 173.528 233.533 173.477V173.485ZM246.036 173.373L241.819 170.939C241.781 170.926 241.748 170.901 241.725 170.868C241.702 170.836 241.69 170.796 241.69 170.756C241.69 170.716 241.702 170.677 241.725 170.644C241.748 170.612 241.781 170.587 241.819 170.573L246.26 168.006C246.36 167.958 246.47 167.933 246.581 167.933C246.692 167.933 246.802 167.958 246.902 168.006L251.112 170.439C251.291 170.544 251.298 170.708 251.112 170.812L246.67 173.38C246.57 173.424 246.461 173.446 246.351 173.443C246.242 173.441 246.134 173.414 246.036 173.365V173.373ZM240.109 164.468C240.208 164.418 240.316 164.392 240.427 164.392C240.537 164.392 240.645 164.418 240.744 164.468L244.961 166.901C245.002 166.913 245.037 166.937 245.063 166.971C245.088 167.005 245.102 167.046 245.102 167.088C245.102 167.13 245.088 167.171 245.063 167.205C245.037 167.238 245.002 167.263 244.961 167.274L240.52 169.842C240.42 169.89 240.31 169.915 240.199 169.915C240.088 169.915 239.978 169.89 239.878 169.842L235.668 167.409C235.63 167.395 235.598 167.37 235.575 167.338C235.551 167.305 235.539 167.266 235.539 167.226C235.539 167.186 235.551 167.147 235.575 167.114C235.598 167.081 235.63 167.056 235.668 167.043L240.109 164.468ZM238.811 163.721L228.017 169.954C227.917 170.002 227.807 170.027 227.696 170.027C227.585 170.027 227.476 170.002 227.375 169.954L223.165 167.521C222.986 167.424 222.979 167.252 223.165 167.155L233.959 160.922C234.059 160.874 234.169 160.85 234.28 160.85C234.391 160.85 234.5 160.874 234.601 160.922L238.811 163.356C238.982 163.43 238.982 163.594 238.811 163.721ZM253.06 171.559L257.27 173.985C257.449 174.089 257.449 174.253 257.27 174.358L252.791 176.926C252.691 176.973 252.581 176.998 252.47 176.998C252.359 176.998 252.249 176.973 252.149 176.926L247.939 174.5C247.76 174.395 247.76 174.224 247.939 174.126L252.418 171.559C252.518 171.511 252.628 171.486 252.739 171.486C252.85 171.486 252.96 171.511 253.06 171.559V171.559ZM299.398 198.303L303.608 200.729C303.787 200.834 303.787 200.998 303.608 201.102L299.129 203.67C299.029 203.718 298.919 203.742 298.808 203.742C298.697 203.742 298.587 203.718 298.487 203.67L294.277 201.244C294.098 201.14 294.098 200.968 294.277 200.871L298.756 198.303C298.856 198.255 298.966 198.231 299.077 198.231C299.188 198.231 299.297 198.255 299.398 198.303V198.303ZM240.341 177.038C240.24 177.085 240.131 177.11 240.02 177.11C239.909 177.11 239.799 177.085 239.699 177.038L235.489 174.612C235.31 174.507 235.31 174.335 235.489 174.238L239.93 171.671C240.03 171.623 240.14 171.598 240.251 171.598C240.362 171.598 240.472 171.623 240.572 171.671L244.789 174.097C244.83 174.108 244.866 174.133 244.891 174.166C244.916 174.2 244.93 174.241 244.93 174.283C244.93 174.325 244.916 174.366 244.891 174.4C244.866 174.434 244.83 174.458 244.789 174.47L240.341 177.038ZM293.24 194.75L297.45 197.176C297.629 197.281 297.629 197.445 297.45 197.549L293.008 200.117C292.908 200.165 292.798 200.189 292.687 200.189C292.576 200.189 292.467 200.165 292.366 200.117L288.149 197.684C288.111 197.67 288.079 197.645 288.056 197.613C288.032 197.58 288.02 197.541 288.02 197.501C288.02 197.461 288.032 197.422 288.056 197.389C288.079 197.356 288.111 197.331 288.149 197.318L292.628 194.75C292.721 194.706 292.823 194.683 292.926 194.683C293.03 194.683 293.132 194.706 293.225 194.75H293.24ZM340.451 234.826C340.351 234.873 340.241 234.898 340.13 234.898C340.019 234.898 339.909 234.873 339.809 234.826L335.599 232.392C335.42 232.288 335.42 232.124 335.599 232.019L340.078 229.451C340.176 229.402 340.285 229.376 340.395 229.376C340.505 229.376 340.614 229.402 340.712 229.451L344.93 231.885C345.109 231.989 345.109 232.153 344.93 232.25L340.451 234.826ZM348.662 226.727L352.872 229.16C353.051 229.265 353.058 229.429 352.872 229.526L348.393 232.094C348.294 232.145 348.184 232.172 348.072 232.172C347.96 232.172 347.85 232.145 347.751 232.094L343.541 229.66C343.362 229.556 343.355 229.392 343.541 229.287L348.02 226.727C348.113 226.683 348.215 226.659 348.318 226.659C348.422 226.659 348.524 226.683 348.617 226.727H348.662ZM333.674 231.265L329.456 228.839C329.416 228.828 329.38 228.803 329.355 228.77C329.329 228.736 329.315 228.695 329.315 228.653C329.315 228.611 329.329 228.57 329.355 228.536C329.38 228.502 329.416 228.478 329.456 228.466L333.897 225.898C333.998 225.851 334.107 225.826 334.218 225.826C334.329 225.826 334.439 225.851 334.539 225.898L338.749 228.332C338.787 228.345 338.82 228.37 338.843 228.403C338.866 228.435 338.878 228.475 338.878 228.515C338.878 228.555 338.866 228.594 338.843 228.627C338.82 228.659 338.787 228.684 338.749 228.698L334.308 231.265C334.204 231.323 334.087 231.354 333.968 231.354C333.849 231.354 333.732 231.323 333.629 231.265H333.674ZM327.516 227.712L323.306 225.286C323.127 225.182 323.119 225.018 323.306 224.913L327.747 222.345C327.847 222.298 327.957 222.273 328.068 222.273C328.179 222.273 328.289 222.298 328.389 222.345L332.606 224.779C332.644 224.792 332.677 224.817 332.7 224.85C332.723 224.882 332.735 224.922 332.735 224.962C332.735 225.002 332.723 225.041 332.7 225.074C332.677 225.106 332.644 225.131 332.606 225.145L328.165 227.712C328.059 227.773 327.94 227.805 327.818 227.805C327.696 227.805 327.576 227.773 327.471 227.712H327.516ZM321.358 224.159L317.148 221.733C316.969 221.629 316.969 221.465 317.148 221.36L321.626 218.792C321.727 218.745 321.836 218.72 321.947 218.72C322.058 218.72 322.168 218.745 322.268 218.792L326.396 221.196C326.575 221.3 326.575 221.472 326.396 221.569L321.917 224.137C321.825 224.186 321.724 224.216 321.62 224.223C321.516 224.231 321.411 224.217 321.313 224.182L321.358 224.159ZM342.511 223.174L346.721 225.607C346.9 225.712 346.9 225.876 346.721 225.973L342.242 228.541C342.143 228.592 342.033 228.619 341.922 228.619C341.81 228.619 341.7 228.592 341.601 228.541L337.391 226.107C337.212 226.003 337.212 225.839 337.391 225.734L341.869 223.174C341.963 223.13 342.065 223.106 342.168 223.106C342.271 223.106 342.373 223.13 342.466 223.174H342.511ZM336.353 219.621L340.563 222.054C340.742 222.159 340.75 222.323 340.563 222.42L336.122 224.988C336.022 225.036 335.912 225.06 335.801 225.06C335.69 225.06 335.58 225.036 335.48 224.988L331.263 222.554C331.091 222.45 331.083 222.286 331.263 222.181L335.741 219.621C335.83 219.581 335.927 219.56 336.025 219.56C336.123 219.56 336.219 219.581 336.308 219.621H336.353ZM311.721 205.439L315.931 207.865C316.11 207.969 316.11 208.141 315.931 208.238L311.452 210.806C311.352 210.853 311.243 210.878 311.132 210.878C311.02 210.878 310.911 210.853 310.811 210.806L306.601 208.38C306.422 208.275 306.422 208.111 306.601 208.007L311.079 205.439C311.173 205.391 311.277 205.363 311.382 205.358C311.488 205.353 311.593 205.37 311.691 205.409L311.721 205.439ZM317.872 208.992L322.082 211.425C322.261 211.522 322.268 211.694 322.082 211.791L317.603 214.359C317.504 214.41 317.394 214.437 317.282 214.437C317.17 214.437 317.06 214.41 316.961 214.359L312.751 211.933C312.572 211.828 312.565 211.664 312.751 211.56L317.192 208.992C317.291 208.938 317.401 208.908 317.514 208.903C317.626 208.897 317.738 208.918 317.842 208.962L317.872 208.992ZM305.563 201.886L309.773 204.312C309.952 204.416 309.96 204.581 309.773 204.685L305.294 207.253C305.194 207.301 305.085 207.325 304.974 207.325C304.862 207.325 304.753 207.301 304.653 207.253L300.443 204.827C300.264 204.722 300.256 204.558 300.443 204.454L304.921 201.886C305.015 201.838 305.119 201.81 305.224 201.805C305.33 201.8 305.435 201.818 305.533 201.856L305.563 201.886ZM330.195 216.068L334.412 218.501C334.592 218.606 334.592 218.77 334.412 218.867L329.971 221.435C329.871 221.483 329.761 221.507 329.65 221.507C329.539 221.507 329.43 221.483 329.329 221.435L325.12 219.001C324.94 218.897 324.94 218.733 325.12 218.628L329.598 216.061C329.776 215.992 329.974 215.995 330.15 216.068H330.195ZM324.045 212.515L328.254 214.948C328.292 214.962 328.325 214.987 328.348 215.019C328.371 215.052 328.384 215.091 328.384 215.131C328.384 215.171 328.371 215.21 328.348 215.243C328.325 215.276 328.292 215.301 328.254 215.314L323.776 217.882C323.678 217.932 323.569 217.958 323.459 217.958C323.348 217.958 323.24 217.932 323.141 217.882L318.924 215.448C318.745 215.344 318.745 215.18 318.924 215.075L323.403 212.508C323.502 212.463 323.609 212.441 323.717 212.442C323.825 212.444 323.932 212.468 324.03 212.515H324.045ZM330.24 236.617L326.023 234.184C325.985 234.17 325.952 234.146 325.929 234.113C325.906 234.08 325.894 234.041 325.894 234.001C325.894 233.961 325.906 233.922 325.929 233.889C325.952 233.856 325.985 233.831 326.023 233.818L330.464 231.25C330.563 231.199 330.673 231.172 330.785 231.172C330.897 231.172 331.007 231.199 331.106 231.25L335.316 233.676C335.495 233.781 335.495 233.945 335.316 234.049L330.874 236.617C330.769 236.671 330.653 236.699 330.535 236.699C330.417 236.699 330.3 236.671 330.195 236.617H330.24ZM364.501 234.042L368.979 231.474C369.08 231.426 369.189 231.402 369.3 231.402C369.411 231.402 369.521 231.426 369.621 231.474L373.756 233.885C373.936 233.99 373.936 234.154 373.756 234.258L369.278 236.826C369.178 236.874 369.068 236.899 368.957 236.899C368.846 236.899 368.736 236.874 368.636 236.826L364.426 234.393C364.394 234.374 364.368 234.347 364.351 234.314C364.333 234.282 364.326 234.245 364.329 234.208C364.332 234.171 364.346 234.136 364.368 234.106C364.391 234.077 364.421 234.055 364.456 234.042H364.501ZM355.887 236.401L360.328 233.833C360.427 233.781 360.538 233.754 360.649 233.754C360.761 233.754 360.871 233.781 360.97 233.833L367.449 237.565C367.628 237.67 367.636 237.834 367.449 237.938L362.971 240.506C362.87 240.554 362.761 240.578 362.65 240.578C362.539 240.578 362.429 240.554 362.329 240.506L355.85 236.774C355.671 236.662 355.663 236.498 355.842 236.401H355.887ZM371.234 229.033L375.712 226.466C375.812 226.418 375.922 226.393 376.033 226.393C376.144 226.393 376.254 226.418 376.354 226.466L381.534 229.451C381.713 229.556 381.721 229.72 381.534 229.825L377.056 232.392C376.955 232.44 376.846 232.465 376.735 232.465C376.624 232.465 376.514 232.44 376.414 232.392L371.189 229.407C371.017 229.295 371.017 229.13 371.189 229.033H371.234ZM367.263 226.734C367.163 226.786 367.053 226.813 366.942 226.813C366.83 226.813 366.72 226.786 366.621 226.734L362.411 224.301C362.232 224.197 362.232 224.032 362.411 223.928L366.889 221.368C366.987 221.316 367.096 221.289 367.207 221.289C367.317 221.289 367.426 221.316 367.524 221.368L371.741 223.801C371.92 223.905 371.92 224.07 371.741 224.167L367.263 226.734ZM347.871 239.11L352.349 236.55C352.448 236.498 352.558 236.471 352.67 236.471C352.782 236.471 352.892 236.498 352.991 236.55L361.09 241.223C361.269 241.327 361.269 241.499 361.09 241.596L356.611 244.163C356.511 244.211 356.401 244.236 356.29 244.236C356.179 244.236 356.069 244.211 355.969 244.163L347.871 239.491C347.699 239.394 347.699 239.23 347.871 239.11ZM344.437 244.462L348.915 241.894C349.016 241.847 349.125 241.822 349.236 241.822C349.348 241.822 349.457 241.847 349.557 241.894L354.738 244.88C354.775 244.893 354.808 244.918 354.831 244.951C354.854 244.984 354.867 245.023 354.867 245.063C354.867 245.103 354.854 245.142 354.831 245.175C354.808 245.208 354.775 245.232 354.738 245.246L350.259 247.813C350.16 247.865 350.05 247.892 349.938 247.892C349.826 247.892 349.716 247.865 349.617 247.813L344.437 244.828C344.265 244.746 344.265 244.581 344.437 244.477V244.462ZM321.455 200.296C321.354 200.344 321.245 200.369 321.134 200.369C321.023 200.369 320.913 200.344 320.813 200.296L316.603 197.863C316.565 197.849 316.532 197.825 316.509 197.792C316.486 197.759 316.474 197.72 316.474 197.68C316.474 197.64 316.486 197.601 316.509 197.568C316.532 197.535 316.565 197.51 316.603 197.497L321.081 194.929C321.182 194.882 321.291 194.857 321.402 194.857C321.513 194.857 321.623 194.882 321.723 194.929L325.933 197.355C326.112 197.46 326.112 197.624 325.933 197.728L321.455 200.296ZM333.733 207.424C333.635 207.474 333.526 207.5 333.416 207.5C333.306 207.5 333.197 207.474 333.099 207.424L328.881 204.999C328.841 204.987 328.805 204.963 328.78 204.929C328.754 204.895 328.741 204.854 328.741 204.812C328.741 204.77 328.754 204.729 328.78 204.695C328.805 204.661 328.841 204.637 328.881 204.625L333.36 202.058C333.46 202.01 333.57 201.985 333.681 201.985C333.792 201.985 333.902 202.01 334.002 202.058L338.212 204.484C338.391 204.588 338.391 204.752 338.212 204.857L333.733 207.424ZM361.037 223.181C360.938 223.233 360.828 223.26 360.716 223.26C360.605 223.26 360.495 223.233 360.395 223.181L356.178 220.748C356.138 220.737 356.102 220.712 356.077 220.678C356.051 220.645 356.037 220.604 356.037 220.561C356.037 220.519 356.051 220.478 356.077 220.445C356.102 220.411 356.138 220.386 356.178 220.375L360.619 217.815C360.719 217.763 360.829 217.736 360.94 217.736C361.052 217.736 361.162 217.763 361.261 217.815L365.471 220.248C365.65 220.353 365.65 220.517 365.471 220.614L361.037 223.181ZM327.583 203.871C327.482 203.919 327.373 203.944 327.262 203.944C327.151 203.944 327.041 203.919 326.941 203.871L322.731 201.446C322.552 201.341 322.544 201.169 322.731 201.072L327.209 198.505C327.31 198.457 327.419 198.432 327.53 198.432C327.642 198.432 327.751 198.457 327.851 198.505L332.061 200.931C332.24 201.035 332.248 201.199 332.061 201.304L327.583 203.871ZM339.891 210.977C339.791 211.025 339.681 211.05 339.57 211.05C339.459 211.05 339.35 211.025 339.249 210.977L335.039 208.552C334.86 208.447 334.86 208.283 335.039 208.178L339.481 205.611C339.581 205.563 339.691 205.538 339.802 205.538C339.913 205.538 340.022 205.563 340.123 205.611L344.34 208.044C344.378 208.057 344.41 208.082 344.434 208.115C344.457 208.148 344.469 208.187 344.469 208.227C344.469 208.267 344.457 208.306 344.434 208.339C344.41 208.372 344.378 208.396 344.34 208.41L339.891 210.977ZM341.197 244.828C341.298 244.78 341.407 244.755 341.518 244.755C341.629 244.755 341.739 244.78 341.839 244.828L348.318 248.56C348.497 248.664 348.505 248.829 348.318 248.926L343.877 251.493C343.777 251.541 343.667 251.566 343.556 251.566C343.445 251.566 343.335 251.541 343.235 251.493L336.756 247.761C336.718 247.748 336.686 247.723 336.663 247.69C336.64 247.658 336.627 247.618 336.627 247.578C336.627 247.538 336.64 247.499 336.663 247.466C336.686 247.434 336.718 247.409 336.756 247.395L341.197 244.828ZM348.714 216.076C348.614 216.123 348.504 216.148 348.393 216.148C348.282 216.148 348.172 216.123 348.072 216.076L343.862 213.642C343.683 213.538 343.683 213.373 343.862 213.269L348.341 210.701C348.441 210.653 348.551 210.629 348.662 210.629C348.773 210.629 348.882 210.653 348.983 210.701L353.193 213.135C353.372 213.239 353.372 213.403 353.193 213.5L348.714 216.076ZM354.872 219.628C354.773 219.68 354.663 219.707 354.551 219.707C354.439 219.707 354.329 219.68 354.23 219.628L350.02 217.195C349.841 217.091 349.834 216.926 350.02 216.822L354.461 214.262C354.561 214.21 354.671 214.183 354.782 214.183C354.894 214.183 355.004 214.21 355.103 214.262L359.351 216.717C359.522 216.822 359.53 216.986 359.351 217.083L354.872 219.628ZM227.174 178.993C227.274 178.945 227.384 178.921 227.495 178.921C227.606 178.921 227.715 178.945 227.816 178.993L238.184 184.965C238.221 184.978 238.254 185.003 238.277 185.036C238.3 185.068 238.313 185.107 238.313 185.147C238.313 185.187 238.3 185.227 238.277 185.259C238.254 185.292 238.221 185.317 238.184 185.33L233.705 187.898C233.606 187.95 233.496 187.977 233.384 187.977C233.272 187.977 233.162 187.95 233.063 187.898L222.703 181.927C222.524 181.822 222.516 181.658 222.703 181.553L227.174 178.993ZM240.818 186.86C240.917 186.809 241.028 186.782 241.139 186.782C241.251 186.782 241.361 186.809 241.46 186.86L245.655 189.286C245.834 189.391 245.834 189.555 245.655 189.66L241.214 192.22C241.115 192.271 241.005 192.298 240.893 192.298C240.781 192.298 240.671 192.271 240.572 192.22L236.355 189.786C236.314 189.775 236.279 189.75 236.253 189.717C236.228 189.683 236.214 189.642 236.214 189.6C236.214 189.558 236.228 189.517 236.253 189.483C236.279 189.449 236.314 189.425 236.355 189.413L240.818 186.86ZM324.03 233.064L319.82 230.631C319.641 230.526 319.633 230.362 319.82 230.265L324.261 227.697C324.361 227.65 324.471 227.625 324.582 227.625C324.693 227.625 324.803 227.65 324.903 227.697L329.12 230.153C329.292 230.258 329.299 230.422 329.12 230.526L324.679 233.094C324.576 233.138 324.463 233.159 324.351 233.153C324.239 233.148 324.129 233.118 324.03 233.064V233.064ZM253.119 193.959C253.22 193.911 253.329 193.886 253.44 193.886C253.551 193.886 253.661 193.911 253.761 193.959L257.971 196.392C258.15 196.497 258.158 196.661 257.971 196.766L253.53 199.326C253.431 199.377 253.321 199.404 253.209 199.404C253.097 199.404 252.987 199.377 252.888 199.326L248.678 196.892C248.499 196.788 248.492 196.624 248.678 196.527L253.119 193.959ZM221.023 175.44C221.124 175.392 221.233 175.368 221.344 175.368C221.455 175.368 221.565 175.392 221.665 175.44L225.912 177.903C225.95 177.917 225.983 177.942 226.006 177.974C226.029 178.007 226.041 178.046 226.041 178.086C226.041 178.126 226.029 178.165 226.006 178.198C225.983 178.231 225.95 178.256 225.912 178.269L221.434 180.837C221.334 180.885 221.224 180.909 221.113 180.909C221.002 180.909 220.892 180.885 220.792 180.837L216.582 178.411C216.403 178.306 216.403 178.142 216.582 178.038L221.023 175.44ZM210.424 174.455L221.255 168.2C221.355 168.152 221.465 168.127 221.576 168.127C221.687 168.127 221.796 168.152 221.897 168.2L226.106 170.626C226.286 170.73 226.286 170.894 226.106 170.999L215.313 177.232C215.213 177.279 215.103 177.304 214.992 177.304C214.881 177.304 214.771 177.279 214.671 177.232L210.461 174.806C210.29 174.724 210.282 174.559 210.461 174.455H210.424ZM276.109 207.238C276.208 207.186 276.319 207.159 276.43 207.159C276.542 207.159 276.652 207.186 276.751 207.238L281.939 210.224C282.118 210.328 282.118 210.492 281.939 210.597L277.46 213.164C277.36 213.212 277.25 213.237 277.139 213.237C277.028 213.237 276.919 213.212 276.818 213.164L271.638 210.179C271.459 210.074 271.452 209.91 271.638 209.813L276.109 207.238ZM260.561 198.281C260.662 198.233 260.771 198.208 260.882 198.208C260.993 198.208 261.103 198.233 261.203 198.281L267.682 202.013C267.861 202.117 267.869 202.282 267.682 202.379L263.204 204.946C263.103 204.994 262.994 205.019 262.883 205.019C262.772 205.019 262.662 204.994 262.562 204.946L256.083 201.214C255.904 201.117 255.896 200.945 256.083 200.848L260.561 198.281ZM290.366 215.486C290.466 215.438 290.576 215.413 290.687 215.413C290.798 215.413 290.908 215.438 291.008 215.486L325.664 235.497C325.844 235.602 325.851 235.766 325.664 235.863L321.223 238.431C321.124 238.483 321.014 238.51 320.902 238.51C320.79 238.51 320.68 238.483 320.581 238.431L285.962 218.404C285.922 218.393 285.886 218.368 285.86 218.335C285.835 218.301 285.821 218.26 285.821 218.218C285.821 218.176 285.835 218.135 285.86 218.101C285.886 218.067 285.922 218.043 285.962 218.031L290.366 215.486ZM326.941 236.625C327.04 236.573 327.15 236.546 327.262 236.546C327.374 236.546 327.484 236.573 327.583 236.625L332.763 239.61C332.942 239.715 332.949 239.879 332.763 239.983L328.284 242.544C328.185 242.595 328.075 242.622 327.963 242.622C327.852 242.622 327.742 242.595 327.642 242.544L322.417 239.558C322.377 239.546 322.341 239.522 322.316 239.488C322.29 239.455 322.277 239.414 322.277 239.371C322.277 239.329 322.29 239.288 322.316 239.255C322.341 239.221 322.377 239.196 322.417 239.185L326.941 236.625ZM283.208 211.373C283.307 211.321 283.417 211.294 283.529 211.294C283.641 211.294 283.751 211.321 283.85 211.373L289.03 214.359C289.209 214.463 289.217 214.627 289.03 214.732L284.551 217.3C284.451 217.347 284.341 217.372 284.23 217.372C284.119 217.372 284.01 217.347 283.909 217.3L278.729 214.314C278.55 214.217 278.543 214.045 278.729 213.948L283.208 211.373ZM334.069 240.737C334.169 240.69 334.279 240.665 334.39 240.665C334.501 240.665 334.611 240.69 334.711 240.737L339.891 243.723C340.07 243.828 340.07 243.992 339.891 244.096L335.413 246.664C335.314 246.714 335.206 246.74 335.095 246.74C334.985 246.74 334.877 246.714 334.778 246.664L329.591 243.678C329.411 243.574 329.411 243.41 329.591 243.313L334.069 240.737ZM268.959 203.147C269.058 203.096 269.168 203.069 269.28 203.069C269.391 203.069 269.501 203.096 269.601 203.147L274.781 206.133C274.96 206.238 274.96 206.402 274.781 206.506L270.302 209.067C270.203 209.118 270.093 209.145 269.981 209.145C269.869 209.145 269.759 209.118 269.66 209.067L264.48 206.081C264.301 205.976 264.301 205.812 264.48 205.708L268.959 203.147ZM246.932 190.458C247.031 190.407 247.141 190.38 247.253 190.38C247.364 190.38 247.474 190.407 247.574 190.458L251.828 192.832C252.007 192.936 252.007 193.101 251.828 193.205L247.35 195.765C247.251 195.817 247.14 195.844 247.029 195.844C246.917 195.844 246.807 195.817 246.708 195.765L242.498 193.332C242.319 193.227 242.319 193.063 242.498 192.966L246.932 190.458ZM233.294 180.755L229.077 178.329C228.898 178.224 228.898 178.06 229.077 177.956L233.556 175.388C233.656 175.34 233.766 175.315 233.877 175.315C233.988 175.315 234.097 175.34 234.198 175.388L238.407 177.814C238.587 177.918 238.587 178.09 238.407 178.187L233.929 180.755C233.832 180.788 233.729 180.801 233.627 180.79C233.526 180.78 233.427 180.747 233.339 180.695L233.294 180.755ZM259.591 181.277L255.381 178.851C255.202 178.747 255.202 178.583 255.381 178.478L259.86 175.91C259.96 175.863 260.07 175.838 260.181 175.838C260.292 175.838 260.401 175.863 260.502 175.91L264.711 178.344C264.891 178.448 264.891 178.612 264.711 178.71L260.233 181.277C260.135 181.313 260.031 181.326 259.928 181.315C259.824 181.305 259.724 181.271 259.636 181.218L259.591 181.277ZM274.766 204.64L262.457 197.527C262.419 197.513 262.387 197.489 262.364 197.456C262.341 197.423 262.328 197.384 262.328 197.344C262.328 197.304 262.341 197.265 262.364 197.232C262.387 197.199 262.419 197.175 262.457 197.161L266.936 194.593C267.035 194.542 267.145 194.515 267.257 194.515C267.368 194.515 267.479 194.542 267.578 194.593L279.886 201.699C279.924 201.713 279.957 201.738 279.98 201.77C280.003 201.803 280.015 201.842 280.015 201.882C280.015 201.922 280.003 201.961 279.98 201.994C279.957 202.027 279.924 202.052 279.886 202.065L275.408 204.633C275.308 204.682 275.199 204.708 275.088 204.709C274.977 204.71 274.867 204.687 274.766 204.64V204.64ZM240.102 184.255C240.002 184.303 239.892 184.328 239.781 184.328C239.67 184.328 239.56 184.303 239.46 184.255L235.25 181.83C235.071 181.725 235.071 181.561 235.25 181.456L239.729 178.889C239.829 178.841 239.939 178.816 240.05 178.816C240.161 178.816 240.27 178.841 240.371 178.889L244.588 181.322C244.626 181.335 244.658 181.36 244.681 181.393C244.705 181.426 244.717 181.465 244.717 181.505C244.717 181.545 244.705 181.584 244.681 181.617C244.658 181.65 244.626 181.674 244.588 181.688L240.102 184.255ZM245.812 180.583L241.595 178.157C241.423 178.053 241.416 177.888 241.595 177.784L246.036 175.216C246.136 175.169 246.246 175.144 246.357 175.144C246.468 175.144 246.578 175.169 246.678 175.216L250.88 177.65C251.059 177.754 251.067 177.918 250.88 178.023L246.439 180.591C246.344 180.63 246.242 180.65 246.14 180.649C246.037 180.648 245.935 180.625 245.842 180.583H245.812ZM280.894 208.201L276.684 205.767C276.505 205.663 276.505 205.499 276.684 205.394L281.163 202.826C281.263 202.779 281.373 202.754 281.484 202.754C281.595 202.754 281.704 202.779 281.805 202.826L286.022 205.26C286.201 205.364 286.201 205.529 286.022 205.626L281.581 208.193C281.482 208.239 281.375 208.262 281.267 208.262C281.159 208.262 281.052 208.239 280.954 208.193L280.894 208.201ZM253.739 192.085C253.64 192.137 253.53 192.164 253.418 192.164C253.306 192.164 253.196 192.137 253.097 192.085L248.887 189.652C248.708 189.548 248.701 189.383 248.887 189.279L253.328 186.719C253.428 186.667 253.538 186.64 253.649 186.64C253.761 186.64 253.871 186.667 253.97 186.719L258.18 189.152C258.359 189.256 258.367 189.421 258.18 189.525L253.739 192.085ZM311.729 225.936L307.519 223.502C307.34 223.398 307.332 223.234 307.519 223.137L311.96 220.569C312.059 220.517 312.169 220.49 312.281 220.49C312.393 220.49 312.503 220.517 312.602 220.569L316.812 223.002C316.991 223.107 316.998 223.271 316.812 223.376L312.333 225.936C312.241 225.985 312.138 226.012 312.034 226.016C311.929 226.02 311.825 226 311.729 225.958V225.936ZM305.571 222.383L301.361 219.949C301.182 219.845 301.182 219.681 301.361 219.584L305.839 217.016C305.938 216.964 306.049 216.937 306.16 216.937C306.272 216.937 306.382 216.964 306.481 217.016L310.691 219.449C310.87 219.554 310.87 219.718 310.691 219.823L306.213 222.383C306.115 222.438 306.006 222.469 305.894 222.473C305.783 222.477 305.672 222.453 305.571 222.405V222.383ZM317.879 229.489L313.669 227.055C313.49 226.951 313.49 226.787 313.669 226.69L318.148 224.122C318.248 224.074 318.358 224.049 318.469 224.049C318.58 224.049 318.69 224.074 318.79 224.122L323 226.555C323.179 226.66 323.179 226.824 323 226.928L318.521 229.496C318.422 229.546 318.313 229.574 318.202 229.576C318.091 229.579 317.981 229.557 317.879 229.511V229.489ZM293.247 215.307L289.037 212.873C288.858 212.769 288.858 212.605 289.037 212.5L293.516 209.94C293.614 209.888 293.723 209.861 293.833 209.861C293.944 209.861 294.053 209.888 294.15 209.94L298.368 212.373C298.547 212.478 298.547 212.642 298.368 212.739L293.889 215.307C293.791 215.355 293.684 215.379 293.575 215.378C293.466 215.376 293.359 215.35 293.262 215.299L293.247 215.307ZM299.398 218.852L295.188 216.419C295.009 216.314 295.001 216.15 295.188 216.046L299.666 213.485C299.766 213.434 299.876 213.407 299.987 213.407C300.099 213.407 300.209 213.434 300.308 213.485L304.518 215.919C304.697 216.023 304.705 216.187 304.518 216.292L300.04 218.852C299.941 218.904 299.83 218.931 299.719 218.931C299.607 218.931 299.497 218.904 299.398 218.852ZM287.089 211.746L282.872 209.313C282.831 209.301 282.796 209.277 282.77 209.243C282.745 209.209 282.731 209.168 282.731 209.126C282.731 209.084 282.745 209.043 282.77 209.009C282.796 208.976 282.831 208.951 282.872 208.94L287.35 206.379C287.45 206.328 287.56 206.301 287.671 206.301C287.783 206.301 287.893 206.328 287.992 206.379L292.202 208.813C292.381 208.917 292.381 209.081 292.202 209.179L287.761 211.746C287.661 211.799 287.549 211.827 287.436 211.827C287.323 211.827 287.212 211.799 287.112 211.746H287.089ZM256.21 160.736C256.111 160.787 256 160.814 255.889 160.814C255.777 160.814 255.667 160.787 255.568 160.736L251.35 158.302C251.171 158.198 251.171 158.034 251.35 157.937L252.53 157.25C252.63 157.202 252.74 157.177 252.851 157.177C252.962 157.177 253.071 157.202 253.172 157.25L257.382 159.683C257.561 159.788 257.561 159.952 257.382 160.056L256.21 160.736ZM286.641 180.217C286.543 180.267 286.434 180.293 286.324 180.293C286.214 180.293 286.105 180.267 286.007 180.217L281.79 177.784C281.61 177.679 281.61 177.515 281.79 177.411L286.268 174.843C286.368 174.795 286.478 174.771 286.589 174.771C286.7 174.771 286.81 174.795 286.91 174.843L291.12 177.276C291.158 177.29 291.19 177.315 291.213 177.347C291.237 177.38 291.249 177.419 291.249 177.459C291.249 177.499 291.237 177.538 291.213 177.571C291.19 177.604 291.158 177.629 291.12 177.642L286.641 180.217ZM274.333 173.111C274.233 173.159 274.123 173.184 274.012 173.184C273.901 173.184 273.791 173.159 273.691 173.111L269.481 170.685C269.302 170.581 269.302 170.417 269.481 170.312L273.96 167.745C274.06 167.697 274.17 167.672 274.281 167.672C274.392 167.672 274.501 167.697 274.602 167.745L278.811 170.178C278.849 170.191 278.882 170.216 278.905 170.249C278.928 170.282 278.94 170.321 278.94 170.361C278.94 170.401 278.928 170.44 278.905 170.473C278.882 170.505 278.849 170.53 278.811 170.544L274.333 173.111ZM294.173 184.554C294.074 184.606 293.964 184.633 293.852 184.633C293.74 184.633 293.63 184.606 293.531 184.554L289.321 182.121C289.142 182.016 289.142 181.852 289.321 181.747L293.8 179.187C293.899 179.136 294.009 179.109 294.121 179.109C294.232 179.109 294.342 179.136 294.441 179.187L298.599 181.636C298.778 181.74 298.778 181.904 298.599 182.009L294.173 184.554ZM280.506 176.664C280.407 176.716 280.297 176.743 280.185 176.743C280.073 176.743 279.963 176.716 279.864 176.664L275.654 174.238C275.475 174.134 275.467 173.97 275.654 173.865L280.133 171.298C280.233 171.25 280.342 171.225 280.454 171.225C280.565 171.225 280.674 171.25 280.774 171.298L284.984 173.731C285.163 173.828 285.171 174 284.984 174.097L280.506 176.664ZM306.481 191.66C306.384 191.712 306.275 191.739 306.164 191.739C306.054 191.739 305.945 191.712 305.847 191.66L301.63 189.227C301.45 189.122 301.45 188.958 301.63 188.861L306.108 186.293C306.207 186.242 306.317 186.215 306.429 186.215C306.541 186.215 306.651 186.242 306.75 186.293L310.96 188.727C311.139 188.831 311.139 188.995 310.96 189.1L306.481 191.66ZM300.331 188.107C300.232 188.159 300.122 188.186 300.01 188.186C299.898 188.186 299.788 188.159 299.689 188.107L295.479 185.674C295.3 185.569 295.292 185.405 295.479 185.308L299.92 182.74C300.019 182.689 300.129 182.662 300.241 182.662C300.353 182.662 300.463 182.689 300.562 182.74L304.772 185.174C304.951 185.278 304.959 185.442 304.772 185.547L300.331 188.107ZM268.533 167.864C268.434 167.916 268.324 167.943 268.212 167.943C268.1 167.943 267.99 167.916 267.891 167.864L263.674 165.431C263.502 165.326 263.495 165.162 263.674 165.065L264.853 164.378C264.954 164.33 265.063 164.306 265.174 164.306C265.285 164.306 265.395 164.33 265.495 164.378L269.705 166.804C269.884 166.909 269.892 167.073 269.705 167.177L268.533 167.864ZM250.067 157.205C249.968 157.257 249.857 157.284 249.746 157.284C249.634 157.284 249.524 157.257 249.425 157.205L245.215 154.772C245.036 154.667 245.028 154.503 245.215 154.399L246.402 153.719C246.502 153.672 246.612 153.647 246.723 153.647C246.834 153.647 246.943 153.672 247.044 153.719L251.261 156.153C251.301 156.164 251.337 156.189 251.362 156.222C251.388 156.256 251.402 156.297 251.402 156.339C251.402 156.381 251.388 156.422 251.362 156.456C251.337 156.49 251.301 156.514 251.261 156.526L250.067 157.205ZM240.729 162.594C240.63 162.646 240.52 162.673 240.408 162.673C240.296 162.673 240.186 162.646 240.087 162.594L235.877 160.161C235.698 160.056 235.698 159.892 235.877 159.795L240.356 157.227C240.453 157.176 240.562 157.149 240.673 157.149C240.783 157.149 240.892 157.176 240.99 157.227L245.207 159.661C245.387 159.765 245.387 159.929 245.207 160.034L240.729 162.594ZM227.181 177.157L222.971 174.731C222.792 174.627 222.785 174.462 222.971 174.358L227.413 171.79C227.513 171.742 227.623 171.718 227.734 171.718C227.845 171.718 227.954 171.742 228.055 171.79L232.22 174.209C232.399 174.313 232.406 174.477 232.22 174.582L227.778 177.149C227.685 177.192 227.583 177.214 227.481 177.216C227.378 177.217 227.276 177.197 227.181 177.157ZM262.36 164.326C262.261 164.378 262.151 164.405 262.039 164.405C261.927 164.405 261.817 164.378 261.718 164.326L257.508 161.893C257.329 161.788 257.329 161.624 257.508 161.527L258.695 160.84C258.794 160.788 258.904 160.761 259.016 160.761C259.128 160.761 259.238 160.788 259.337 160.84L263.569 163.259C263.749 163.363 263.749 163.527 263.569 163.632L262.36 164.326ZM312.624 195.228C312.525 195.28 312.415 195.307 312.303 195.307C312.192 195.307 312.082 195.28 311.982 195.228L307.773 192.795C307.593 192.69 307.593 192.526 307.773 192.429L312.206 189.846C312.307 189.798 312.416 189.774 312.527 189.774C312.638 189.774 312.748 189.798 312.848 189.846L317.066 192.28C317.237 192.384 317.245 192.548 317.066 192.653L312.624 195.228Z" fill="#455A64"/>
<path d="M290.083 231.4L252.149 209.5C251.508 209.176 250.8 209.007 250.082 209.007C249.363 209.007 248.655 209.176 248.014 209.5L226.248 222.055C225.106 222.719 225.106 223.786 226.248 224.451L264.174 246.343C264.815 246.671 265.525 246.842 266.245 246.842C266.966 246.842 267.675 246.671 268.317 246.343L290.068 233.788C291.187 233.139 291.187 232.057 290.083 231.4Z" fill="#263238"/>
<path d="M296.501 65.372C308.354 76.0235 318.595 75.4637 324.999 70.5298C331.396 82.8607 341.637 95.2364 353.49 98.2744L360.26 116.562C360.26 116.562 356.632 120.742 356.632 130.744C356.668 134.936 357.233 139.106 358.312 143.157C359.544 148.091 361.133 153.196 361.133 161.728C361.133 167.505 360.387 173.126 357.446 178.239C355.671 181.333 353.115 183.906 350.034 185.703L360.327 179.732C363.573 177.936 366.27 175.291 368.127 172.081C371.053 166.96 371.8 161.347 371.8 155.562C371.8 147.038 370.21 141.925 368.978 136.984C367.905 132.935 367.348 128.767 367.321 124.578C367.321 114.576 370.949 110.396 370.949 110.396L364.186 92.1089C352.333 89.071 342.092 76.6953 335.695 64.3643C329.291 69.2982 319.05 69.858 307.197 59.2065L296.501 65.372Z" fill="#407BFF"/>
<path opacity="0.8" d="M331.926 66.5364L335.658 64.3643C334.515 65.2494 333.26 65.9798 331.926 66.5364Z" fill="white"/>
<path opacity="0.85" d="M307.183 59.2214C316.939 67.9844 325.597 69.1563 331.927 66.5513L325 70.5447C318.596 75.4785 308.355 76.0384 296.501 65.3869L307.183 59.2214Z" fill="white"/>
<path opacity="0.65" d="M335.681 64.3643C342.078 76.6952 352.319 89.0709 364.172 92.1088L353.491 98.2743C341.637 95.2363 331.396 82.8606 325 70.5297L335.681 64.3643Z" fill="white"/>
<path opacity="0.55" d="M364.172 92.1089L370.935 110.396L360.261 116.562L353.491 98.2744L364.172 92.1089Z" fill="white"/>
<path opacity="0.4" d="M357.446 178.239C360.372 173.126 361.134 167.505 361.134 161.728C361.134 153.196 359.544 148.091 358.312 143.157C357.233 139.106 356.668 134.936 356.633 130.744C356.633 120.742 360.26 116.562 360.26 116.562L370.934 110.396C370.934 110.396 367.307 114.576 367.307 124.579C367.343 128.768 367.91 132.937 368.993 136.984C370.225 141.925 371.815 147.038 371.815 155.563C371.815 161.347 371.069 166.96 368.128 172.073C366.27 175.284 363.573 177.929 360.327 179.724L350.034 185.696C353.115 183.901 355.67 181.33 357.446 178.239Z" fill="white"/>
<path opacity="0.05" d="M357.446 178.239C360.372 173.126 361.134 167.505 361.134 161.728C361.134 153.196 359.544 148.091 358.312 143.157C357.233 139.106 356.668 134.936 356.633 130.744C356.633 120.742 360.26 116.562 360.26 116.562L370.934 110.396C370.934 110.396 367.307 114.576 367.307 124.579C367.343 128.768 367.91 132.937 368.993 136.984C370.225 141.925 371.815 147.038 371.815 155.563C371.815 161.347 371.069 166.96 368.128 172.073C366.27 175.284 363.573 177.929 360.327 179.724L350.034 185.696C353.115 183.901 355.67 181.33 357.446 178.239Z" fill="#11173D"/>
<path d="M324.999 190.764C342.705 190.965 352.848 186.285 357.454 178.239C360.372 173.126 361.134 167.505 361.134 161.72C361.134 153.196 359.551 148.098 358.312 143.157C357.233 139.109 356.669 134.941 356.633 130.751C356.633 120.749 360.26 116.569 360.26 116.569L353.49 98.2744C341.637 95.2365 331.396 82.8533 324.999 70.5298C318.595 75.4637 308.354 76.0235 296.501 65.3721L289.731 75.822C292.057 81.6709 293.289 87.8974 293.366 94.1915C293.429 97.7473 292.857 101.286 291.679 104.641C290.447 108.15 288.858 111.426 288.858 119.951C288.877 127.036 290.125 134.064 292.545 140.724C297.158 154.129 307.287 170.513 324.999 190.764Z" fill="#407BFF"/>
<path opacity="0.75" d="M324.999 190.764C342.705 190.965 352.848 186.285 357.454 178.239C360.372 173.126 361.134 167.505 361.134 161.72C361.134 153.196 359.551 148.098 358.312 143.157C357.233 139.109 356.669 134.941 356.633 130.751C356.633 120.749 360.26 116.569 360.26 116.569L353.49 98.2744C341.637 95.2365 331.396 82.8533 324.999 70.5298C318.595 75.4637 308.354 76.0235 296.501 65.3721L289.731 75.822C292.057 81.6709 293.289 87.8974 293.366 94.1915C293.429 97.7473 292.857 101.286 291.679 104.641C290.447 108.15 288.858 111.426 288.858 119.951C288.877 127.036 290.125 134.064 292.545 140.724C297.158 154.129 307.287 170.513 324.999 190.764Z" fill="white"/>
<path d="M327.097 186.166C340.808 186.002 349.676 182.568 353.453 175.962C355.588 172.23 356.536 167.841 356.536 161.721C356.536 156.384 355.782 151.074 354.296 145.949C354.155 145.381 354.005 144.829 353.871 144.269C352.691 139.859 352.079 135.317 352.05 130.751C352.05 123.459 353.796 118.689 355.185 116.047L349.96 102.014C337.27 97.6028 328.097 85.0703 323.238 76.8522C320.62 77.965 317.804 78.5338 314.96 78.5242C309.227 78.5242 303.398 76.3894 297.576 72.1721L294.851 76.3969C296.835 82.1335 297.884 88.1519 297.956 94.2215C298.023 98.303 297.366 102.364 296.016 106.217C295.874 106.62 295.725 107.023 295.575 107.426C294.485 110.411 293.455 113.225 293.455 119.995C293.48 126.57 294.642 133.09 296.889 139.268C301.42 152.42 311.579 168.2 327.097 186.166Z" fill="#407BFF"/>
<path opacity="0.4" d="M327.097 186.166C340.808 186.002 349.676 182.568 353.453 175.962C355.588 172.23 356.536 167.841 356.536 161.721C356.536 156.384 355.782 151.074 354.296 145.949C354.155 145.381 354.005 144.829 353.871 144.269C352.691 139.859 352.079 135.317 352.05 130.751C352.05 123.459 353.796 118.689 355.185 116.047L349.96 102.014C337.27 97.6028 328.097 85.0703 323.238 76.8522C320.62 77.965 317.804 78.5338 314.96 78.5242C309.227 78.5242 303.398 76.3894 297.576 72.1721L294.851 76.3969C296.835 82.1335 297.884 88.1519 297.956 94.2215C298.023 98.303 297.366 102.364 296.016 106.217C295.874 106.62 295.725 107.023 295.575 107.426C294.485 110.411 293.455 113.225 293.455 119.995C293.48 126.57 294.642 133.09 296.889 139.268C301.42 152.42 311.579 168.2 327.097 186.166Z" fill="white"/>
<path opacity="0.15" d="M327.097 186.166C340.808 186.002 349.676 182.568 353.453 175.962C355.588 172.23 356.536 167.841 356.536 161.721C356.536 156.384 355.782 151.074 354.296 145.949C354.155 145.381 354.005 144.829 353.871 144.269C352.691 139.859 352.079 135.317 352.05 130.751C352.05 123.459 353.796 118.689 355.185 116.047L349.96 102.014C337.27 97.6028 328.097 85.0703 323.238 76.8522C320.62 77.965 317.804 78.5338 314.96 78.5242C309.227 78.5242 303.398 76.3894 297.576 72.1721L294.851 76.3969C296.835 82.1335 297.884 88.1519 297.956 94.2215C298.023 98.303 297.366 102.364 296.016 106.217C295.874 106.62 295.725 107.023 295.575 107.426C294.485 110.411 293.455 113.225 293.455 119.995C293.48 126.57 294.642 133.09 296.889 139.268C301.42 152.42 311.579 168.2 327.097 186.166Z" fill="#11173D"/>
<path opacity="0.8" d="M350.311 179.762C345.638 183.882 337.875 186.039 327.097 186.166L333.971 182.247C339.517 182.323 345.038 181.483 350.311 179.762V179.762Z" fill="white"/>
<path opacity="0.15" d="M298.441 74.3293L294.859 76.3969L297.583 72.1721L299.143 73.247L298.441 74.3293Z" fill="#11173D"/>
<path d="M299.606 104.149C300.956 100.296 301.613 96.2351 301.547 92.1535C301.474 86.0839 300.426 80.0655 298.442 74.3289L299.143 73.2466C304.443 76.7473 309.743 78.5238 314.968 78.5238C317.812 78.5335 320.628 77.9646 323.245 76.8518C328.105 85.0625 337.278 97.6024 349.967 102.014L355.192 116.047C353.804 118.689 352.057 123.459 352.057 130.751C352.087 135.316 352.699 139.859 353.879 144.269C354.013 144.829 354.162 145.381 354.304 145.948C355.79 151.074 356.544 156.384 356.543 161.72C356.543 167.841 355.595 172.23 353.461 175.962C352.337 177.884 350.809 179.54 348.982 180.814C344.399 182.904 338.293 183.998 330.665 184.098C315.154 166.124 304.995 150.352 300.465 137.2C298.217 131.022 297.055 124.502 297.031 117.928C297.031 111.157 298.069 108.343 299.158 105.358C299.315 104.955 299.464 104.552 299.606 104.149Z" fill="#455A64"/>
<path d="M349.967 102.014L355.192 116.047C353.804 118.689 352.057 123.459 352.057 130.751C352.087 135.316 352.699 139.859 353.879 144.269C354.013 144.829 354.162 145.381 354.304 145.948C355.79 151.074 356.544 156.384 356.543 161.72C356.543 167.841 355.595 172.23 353.461 175.962C352.337 177.885 350.809 179.54 348.982 180.814C344.399 182.904 338.293 183.999 330.665 184.098V132.371L323.201 130.132V76.8521C325.404 80.5866 327.9 84.1408 330.665 87.4811C335.644 93.4749 342.137 99.2896 349.967 102.014Z" fill="#37474F"/>
<path d="M312.743 113.278C312.823 113.131 312.918 112.994 313.026 112.867L313.064 112.822C313.282 112.585 313.533 112.381 313.81 112.218L316.296 110.784C316.745 110.533 317.227 110.347 317.729 110.232C318.029 110.166 318.333 110.119 318.64 110.09V102.731C318.64 99.0358 320.035 96.1173 322.469 94.714C324.902 93.3107 327.694 93.5496 330.552 95.2216C335.867 98.2894 340.025 105.776 340.025 112.262V120.951L344.981 123.81C345.128 123.895 345.268 123.992 345.399 124.101L345.533 124.205C345.736 124.367 345.902 124.571 346.019 124.803C346.136 125.035 346.202 125.289 346.212 125.549V155.353C346.21 155.482 346.192 155.61 346.16 155.734C346.004 156.236 345.673 156.665 345.227 156.943L344.951 157.122L343.734 157.824L342.458 158.571C341.96 158.846 341.42 159.04 340.861 159.145C339.333 159.483 337.736 159.277 336.345 158.563L313.78 145.538C313.431 145.383 313.13 145.139 312.907 144.829C312.684 144.52 312.548 144.156 312.511 143.776V113.987C312.529 113.735 312.609 113.491 312.743 113.278ZM335.173 112.262C335.173 107.515 331.948 101.648 328.134 99.4463C326.835 98.6999 325.671 98.5058 324.932 98.9387C324.059 99.4389 323.544 100.857 323.544 102.731V111.419L329.955 115.151L335.18 118.137L335.173 112.262Z" fill="#263238"/>
<path d="M309.937 115.3C309.972 114.92 310.108 114.557 310.331 114.247C310.555 113.937 310.856 113.693 311.206 113.539L313.691 112.098C314.638 111.615 315.685 111.363 316.748 111.363C317.81 111.363 318.858 111.615 319.804 112.098L342.369 125.123C342.718 125.279 343.02 125.525 343.243 125.836C343.466 126.147 343.602 126.511 343.638 126.892V156.697C343.604 157.079 343.469 157.444 343.246 157.755C343.022 158.067 342.72 158.312 342.369 158.466L339.883 159.907C338.935 160.385 337.888 160.634 336.827 160.634C335.765 160.634 334.718 160.385 333.77 159.907L311.206 146.874C310.857 146.719 310.555 146.475 310.332 146.165C310.109 145.856 309.973 145.492 309.937 145.113V145.113V115.3Z" fill="#407BFF"/>
<path opacity="0.4" d="M339.883 130.132L342.368 128.639C344.063 127.669 344.063 126.086 342.368 125.108L319.804 112.083C318.858 111.6 317.81 111.348 316.747 111.348C315.685 111.348 314.637 111.6 313.691 112.083L311.205 113.524C309.518 114.494 309.518 116.077 311.205 117.047L333.732 130.132C334.685 130.616 335.739 130.869 336.808 130.869C337.876 130.869 338.93 130.616 339.883 130.132V130.132Z" fill="white"/>
<path opacity="0.1" d="M336.823 130.826V160.631C337.89 160.647 338.943 160.39 339.883 159.884L342.376 158.496C342.727 158.341 343.03 158.094 343.252 157.782C343.474 157.469 343.607 157.102 343.638 156.72V126.893C343.604 127.272 343.469 127.636 343.247 127.945C343.025 128.255 342.725 128.5 342.376 128.654L339.883 130.095C338.943 130.598 337.889 130.85 336.823 130.826V130.826Z" fill="#11173D"/>
<path d="M320.401 145.568L325.79 148.68L324.954 138.932C325.596 138.589 326.007 137.753 326.007 136.551C326.007 134.401 324.708 131.908 323.096 130.983C321.484 130.057 320.185 131.035 320.185 133.222C320.218 134.492 320.58 135.732 321.237 136.82L320.401 145.568Z" fill="#455A64"/>
<path d="M320.401 145.568L325.282 142.754L325.79 148.681L320.401 145.568Z" fill="#37474F"/>
<path d="M323.096 130.983C324.269 131.774 325.144 132.936 325.582 134.282L321.237 136.79C320.581 135.702 320.218 134.462 320.185 133.192C320.185 131.035 321.484 130.05 323.096 130.983Z" fill="#37474F"/>
<path d="M316.034 115.95V104.007C316.034 100.275 317.43 97.3936 319.864 95.9904C322.297 94.5871 325.089 94.8334 327.947 96.4979C333.262 99.5657 337.419 107.052 337.419 113.539V125.519C337.398 125.738 337.317 125.947 337.185 126.123C337.054 126.299 336.877 126.436 336.673 126.519C336.139 126.788 335.55 126.927 334.952 126.927C334.355 126.927 333.766 126.788 333.232 126.519C333.028 126.436 332.851 126.299 332.72 126.123C332.588 125.947 332.507 125.738 332.486 125.519V125.519V113.576C332.486 108.829 329.261 102.962 325.447 100.76C324.148 100.014 322.976 99.827 322.237 100.252C321.371 100.753 320.849 102.171 320.849 104.044V115.987C320.825 116.204 320.743 116.409 320.612 116.583C320.481 116.757 320.304 116.891 320.102 116.972C319.569 117.241 318.979 117.381 318.382 117.381C317.784 117.381 317.195 117.241 316.661 116.972C316.461 116.888 316.287 116.753 316.156 116.58C316.025 116.407 315.942 116.203 315.915 115.987L316.034 115.95Z" fill="#E0E0E0"/>
<path d="M287.03 168.357L283.746 166.461L282.447 164.878L285.731 166.774L287.03 168.357Z" fill="#407BFF"/>
<path opacity="0.4" d="M287.03 168.357L283.746 166.461L282.447 164.878L285.731 166.774L287.03 168.357Z" fill="#11173D"/>
<path d="M278.095 173.514L274.811 171.618L272.064 169.185L275.348 171.081L278.095 173.514Z" fill="#407BFF"/>
<path opacity="0.4" d="M278.095 173.514L274.811 171.618L272.064 169.185L275.348 171.081L278.095 173.514Z" fill="#11173D"/>
<path d="M250.134 180.068C249.357 181.11 248.886 182.348 248.775 183.643C249.546 182.598 250.016 181.361 250.134 180.068V180.068ZM242.498 180.165C243.603 172.641 247.641 165.236 252.463 162.415C254.777 161.079 256.941 161.034 258.628 162.034L261.718 163.818L261.898 163.923C262.035 163.998 262.168 164.082 262.293 164.177C262.557 164.35 262.807 164.545 263.04 164.759L263.144 164.856C263.241 164.953 263.338 165.065 263.428 165.169C263.517 165.274 263.659 165.438 263.756 165.572C263.979 165.866 264.181 166.176 264.361 166.498C264.45 166.662 264.547 166.834 264.629 167.013L291.642 151.42L294.927 153.309V155.406L294.643 155.563L294.382 155.72V156.16L294.927 156.473V157.69L290.956 166.087L287.03 168.327L285.731 166.744L282.267 168.819L280.282 172.223L278.087 173.484L275.348 171.051L271.982 172.999L270.847 177.664L265.204 180.926C264.917 182.116 264.561 183.287 264.137 184.434L264.01 184.8C262.129 189.727 259.143 193.951 255.799 195.9C255.392 196.133 254.968 196.335 254.53 196.504C254.298 196.596 254.062 196.676 253.821 196.743C253.615 196.801 253.405 196.848 253.194 196.885C252.533 197.008 251.855 197.008 251.194 196.885L250.918 196.818C250.787 196.795 250.659 196.758 250.537 196.706L250.246 196.594C250.14 196.554 250.038 196.507 249.94 196.452L249.664 196.31L249.522 196.228L249.455 196.191L246.357 194.407C243.864 192.959 242.244 189.301 242.244 184.128C242.241 182.794 242.339 181.462 242.535 180.143L242.498 180.165Z" fill="#407BFF"/>
<path d="M251.134 186.412C252.426 185.666 253.478 183.427 253.478 181.449C253.478 179.471 252.426 178.463 251.134 179.21C249.843 179.956 248.783 182.195 248.783 184.181C248.783 186.166 249.835 187.159 251.134 186.412ZM245.812 182.061C246.917 174.537 250.963 167.095 255.784 164.311C258.024 163.027 260.076 162.93 261.756 163.818L261.935 163.923C262.073 163.998 262.205 164.082 262.331 164.177C262.595 164.35 262.845 164.545 263.077 164.759L263.182 164.856C263.279 164.953 263.376 165.065 263.465 165.169C263.555 165.274 263.697 165.438 263.794 165.572C264.016 165.866 264.218 166.176 264.398 166.498C264.488 166.662 264.585 166.834 264.667 167.013C265.151 168.028 265.503 169.102 265.712 170.208L294.919 153.309V155.406L294.636 155.563L294.375 155.72V156.16L294.919 156.473V157.69L290.948 166.087L287.022 168.327L285.723 166.744L282.26 168.819L280.275 172.223L278.08 173.484L275.341 171.051L271.974 172.999L270.84 177.664L265.197 180.926C264.91 182.116 264.554 183.287 264.129 184.434L264.003 184.8C262.122 189.727 259.136 193.951 255.792 195.9C255.385 196.133 254.961 196.335 254.523 196.504C254.291 196.596 254.054 196.676 253.814 196.743C253.607 196.801 253.398 196.848 253.187 196.885C252.526 197.008 251.848 197.008 251.186 196.885L250.91 196.818C250.779 196.795 250.652 196.758 250.53 196.706L250.239 196.594C250.133 196.554 250.031 196.507 249.932 196.452L249.656 196.31L249.514 196.228L249.447 196.191C247.059 194.698 245.521 191.078 245.521 186.024C245.523 184.698 245.621 183.373 245.812 182.061V182.061Z" fill="#407BFF"/>
<path opacity="0.4" d="M248.783 184.151C248.783 186.151 249.835 187.136 251.126 186.39C252.418 185.644 253.478 183.404 253.478 181.426C253.478 179.448 252.425 178.441 251.126 179.187C250.741 179.413 250.403 179.712 250.134 180.068C250.019 181.362 249.549 182.6 248.775 183.643C248.767 183.812 248.769 183.982 248.783 184.151Z" fill="#11173D"/>
<path opacity="0.4" d="M242.229 184.151C242.229 189.324 243.849 192.981 246.342 194.429L249.439 196.213C247.051 194.72 245.513 191.1 245.513 186.047C245.517 184.713 245.617 183.381 245.812 182.061C246.916 174.537 250.962 167.095 255.784 164.311C258.023 163.027 260.076 162.93 261.755 163.818L258.665 162.034C256.948 161.034 254.814 161.079 252.5 162.415C247.678 165.214 243.64 172.678 242.535 180.143C242.332 181.469 242.23 182.809 242.229 184.151V184.151Z" fill="white"/>
<path d="M245.513 186.047C245.513 191.1 247.051 194.705 249.439 196.213L246.342 194.429C243.849 192.981 242.229 189.324 242.229 184.151C242.229 183.957 242.229 183.763 242.229 183.576L245.506 185.472C245.521 185.659 245.513 185.853 245.513 186.047Z" fill="#407BFF"/>
<path opacity="0.1" d="M245.513 186.047C245.513 191.1 247.051 194.705 249.439 196.213L246.342 194.429C243.849 192.981 242.229 189.324 242.229 184.151C242.229 183.957 242.229 183.763 242.229 183.576L245.506 185.472C245.521 185.659 245.513 185.853 245.513 186.047Z" fill="#11173D"/>
<path opacity="0.15" d="M265.555 172.357V173.425L294.927 156.474L294.382 156.16V155.712L265.555 172.357Z" fill="#11173D"/>
<path opacity="0.15" d="M265.555 172.805V173.425L294.927 156.473L294.382 156.16V156.152L265.555 172.805Z" fill="#11173D"/>
<path opacity="0.15" d="M252.776 194.459C253.888 194.428 254.972 194.104 255.919 193.518C260.711 190.749 264.607 182.524 264.607 175.179C264.607 170.894 263.308 167.715 261.046 166.386C259.464 165.475 257.598 165.587 255.642 166.714C250.858 169.484 246.961 177.709 246.961 185.054C246.961 189.338 248.26 192.518 250.522 193.847C251.205 194.25 251.983 194.461 252.776 194.459V194.459ZM258.748 166.326C259.444 166.325 260.129 166.508 260.733 166.856C262.793 168.043 264.017 171.156 264.017 175.179C264.017 182.352 260.285 190.361 255.605 193.041C253.829 194.071 252.157 194.183 250.753 193.377C248.693 192.19 247.469 189.077 247.469 185.054C247.469 177.881 251.201 169.864 255.881 167.192C256.755 166.65 257.757 166.351 258.785 166.326H258.748Z" fill="#11173D"/>
<path opacity="0.5" d="M264.63 167.013C265.114 168.028 265.465 169.102 265.675 170.208L294.919 153.309L291.635 151.42L264.63 167.013Z" fill="white"/>
</svg>
