<svg width="1440" height="256" viewBox="0 0 1440 256" fill="none" xmlns="http://www.w3.org/2000/svg">
<rect width="1440" height="256" fill="#F8F8FB"/>
<g filter="url(#filter0_d_1345_688)">
<rect x="160" y="144" width="143" height="48" rx="14" fill="white"/>
<path d="M204.625 158.625H187.375C186.96 158.625 186.625 158.96 186.625 159.375V176.625C186.625 177.04 186.96 177.375 187.375 177.375H204.625C205.04 177.375 205.375 177.04 205.375 176.625V159.375C205.375 158.96 205.04 158.625 204.625 158.625ZM203.875 169.5H196.375V166.5H203.875V169.5ZM197.594 168C197.594 168.249 197.693 168.487 197.868 168.663C198.044 168.839 198.283 168.938 198.531 168.938C198.78 168.938 199.018 168.839 199.194 168.663C199.37 168.487 199.469 168.249 199.469 168C199.469 167.751 199.37 167.513 199.194 167.337C199.018 167.161 198.78 167.062 198.531 167.062C198.283 167.062 198.044 167.161 197.868 167.337C197.693 167.513 197.594 167.751 197.594 168Z" fill="#3348BD"/>
<path d="M224.528 168.224C225.307 168.384 225.899 168.699 226.304 169.168C226.709 169.627 226.912 170.229 226.912 170.976C226.912 171.947 226.565 172.693 225.872 173.216C225.189 173.739 224.181 174 222.848 174H217.888V162.8H222.544C223.739 162.8 224.672 163.045 225.344 163.536C226.016 164.027 226.352 164.736 226.352 165.664C226.352 166.293 226.192 166.827 225.872 167.264C225.552 167.691 225.104 168.011 224.528 168.224ZM219.056 167.872H222.48C223.344 167.872 224.005 167.696 224.464 167.344C224.933 166.992 225.168 166.48 225.168 165.808C225.168 165.136 224.933 164.624 224.464 164.272C224.005 163.92 223.344 163.744 222.48 163.744H219.056V167.872ZM222.848 173.056C224.779 173.056 225.744 172.336 225.744 170.896C225.744 169.488 224.779 168.784 222.848 168.784H219.056V173.056H222.848ZM232.656 165.52C233.755 165.52 234.598 165.797 235.184 166.352C235.771 166.896 236.064 167.707 236.064 168.784V174H234.976V172.688C234.72 173.125 234.342 173.467 233.84 173.712C233.35 173.957 232.763 174.08 232.08 174.08C231.142 174.08 230.395 173.856 229.84 173.408C229.286 172.96 229.008 172.368 229.008 171.632C229.008 170.917 229.264 170.341 229.776 169.904C230.299 169.467 231.126 169.248 232.256 169.248H234.928V168.736C234.928 168.011 234.726 167.461 234.32 167.088C233.915 166.704 233.323 166.512 232.544 166.512C232.011 166.512 231.499 166.603 231.008 166.784C230.518 166.955 230.096 167.195 229.744 167.504L229.232 166.656C229.659 166.293 230.171 166.016 230.768 165.824C231.366 165.621 231.995 165.52 232.656 165.52ZM232.256 173.184C232.896 173.184 233.446 173.04 233.904 172.752C234.363 172.453 234.704 172.027 234.928 171.472V170.096H232.288C230.848 170.096 230.128 170.597 230.128 171.6C230.128 172.091 230.315 172.48 230.688 172.768C231.062 173.045 231.584 173.184 232.256 173.184ZM246.128 165.584V174H244.992V166.592H240.96L240.848 168.672C240.763 170.421 240.56 171.765 240.24 172.704C239.92 173.643 239.35 174.112 238.528 174.112C238.304 174.112 238.032 174.069 237.712 173.984L237.792 173.008C237.984 173.051 238.118 173.072 238.192 173.072C238.63 173.072 238.96 172.869 239.184 172.464C239.408 172.059 239.558 171.557 239.632 170.96C239.707 170.363 239.771 169.573 239.824 168.592L239.968 165.584H246.128ZM256.75 165.52C257.539 165.52 258.249 165.701 258.878 166.064C259.518 166.427 260.019 166.933 260.382 167.584C260.745 168.235 260.926 168.971 260.926 169.792C260.926 170.613 260.745 171.349 260.382 172C260.019 172.651 259.518 173.163 258.878 173.536C258.249 173.899 257.539 174.08 256.75 174.08C256.003 174.08 255.326 173.92 254.718 173.6C254.11 173.269 253.614 172.816 253.23 172.24C252.857 171.664 252.638 171.003 252.574 170.256H250.654V174H249.518V165.584H250.654V169.216H252.59C252.675 168.491 252.905 167.851 253.278 167.296C253.662 166.731 254.153 166.293 254.75 165.984C255.347 165.675 256.014 165.52 256.75 165.52ZM256.75 173.088C257.326 173.088 257.843 172.949 258.302 172.672C258.771 172.395 259.139 172.005 259.406 171.504C259.673 171.003 259.806 170.432 259.806 169.792C259.806 169.152 259.673 168.581 259.406 168.08C259.139 167.579 258.771 167.195 258.302 166.928C257.843 166.651 257.326 166.512 256.75 166.512C256.174 166.512 255.651 166.651 255.182 166.928C254.723 167.195 254.361 167.579 254.094 168.08C253.827 168.581 253.694 169.152 253.694 169.792C253.694 170.432 253.827 171.003 254.094 171.504C254.361 172.005 254.723 172.395 255.182 172.672C255.651 172.949 256.174 173.088 256.75 173.088ZM269.129 166.592H265.945V174H264.809V166.592H261.625V165.584H269.129V166.592ZM273.828 165.52C274.926 165.52 275.769 165.797 276.356 166.352C276.942 166.896 277.236 167.707 277.236 168.784V174H276.148V172.688C275.892 173.125 275.513 173.467 275.012 173.712C274.521 173.957 273.934 174.08 273.252 174.08C272.313 174.08 271.566 173.856 271.012 173.408C270.457 172.96 270.18 172.368 270.18 171.632C270.18 170.917 270.436 170.341 270.948 169.904C271.47 169.467 272.297 169.248 273.428 169.248H276.1V168.736C276.1 168.011 275.897 167.461 275.492 167.088C275.086 166.704 274.494 166.512 273.716 166.512C273.182 166.512 272.67 166.603 272.18 166.784C271.689 166.955 271.268 167.195 270.916 167.504L270.404 166.656C270.83 166.293 271.342 166.016 271.94 165.824C272.537 165.621 273.166 165.52 273.828 165.52ZM273.428 173.184C274.068 173.184 274.617 173.04 275.076 172.752C275.534 172.453 275.876 172.027 276.1 171.472V170.096H273.46C272.02 170.096 271.3 170.597 271.3 171.6C271.3 172.091 271.486 172.48 271.86 172.768C272.233 173.045 272.756 173.184 273.428 173.184Z" fill="#11173D"/>
</g>
<g filter="url(#filter1_d_1345_688)">
<rect x="327" y="144" width="135" height="48" rx="14" fill="white"/>
<path d="M374.892 177.287C374.892 177.624 374.826 177.959 374.696 178.271C374.567 178.583 374.378 178.867 374.139 179.106C373.9 179.345 373.617 179.535 373.305 179.664C372.993 179.793 372.658 179.86 372.32 179.86H353.603C352.921 179.86 352.267 179.588 351.785 179.106C351.303 178.623 351.032 177.969 351.032 177.287V158.573C351.032 157.152 352.183 156 353.603 156H372.32C372.658 156 372.992 156.067 373.304 156.196C373.616 156.325 373.9 156.515 374.139 156.754C374.378 156.993 374.567 157.276 374.696 157.588C374.825 157.9 374.892 158.235 374.892 158.573V177.287Z" fill="#F8F8FB"/>
<path d="M351.032 159.956H374.893V160.331H351.036L351.032 159.956Z" fill="#999EBA"/>
<path d="M351.032 165.502H374.893V165.877H351.036L351.032 165.502Z" fill="#999EBA"/>
<path d="M351.032 171.06H374.893V171.435H351.036L351.032 171.06Z" fill="#999EBA"/>
<path d="M351.032 176.604H374.893V176.979H351.036L351.032 176.604Z" fill="#999EBA"/>
<path d="M354.667 156H355.042V179.861H354.667V156Z" fill="#999EBA"/>
<path d="M360.212 156H360.587V179.861H360.212V156Z" fill="#999EBA"/>
<path d="M365.771 156H366.146V179.861H365.771V156Z" fill="#999EBA"/>
<path d="M371.314 156H371.689V179.861H371.314V156Z" fill="#999EBA"/>
<path d="M351 171.904L357.503 166.249C357.431 166.131 357.365 166.01 357.304 165.886C357.034 165.803 356.762 165.749 356.499 165.644L351 170.4V171.907" fill="#3348BD"/>
<path d="M361.265 171.976C361.999 172.051 361.921 171.985 362.381 171.536L357.303 165.698C357.204 165.584 357.063 165.514 356.912 165.503C356.761 165.493 356.612 165.543 356.497 165.642C356.383 165.742 356.313 165.883 356.303 166.034C356.292 166.185 356.342 166.334 356.442 166.448L361.252 171.978C361.257 171.976 361.26 171.975 361.265 171.976Z" fill="#3348BD"/>
<path d="M374.89 165.964L371.983 162.621C371.934 162.565 371.874 162.519 371.807 162.485C371.74 162.452 371.667 162.432 371.592 162.427C371.517 162.422 371.442 162.431 371.371 162.455C371.3 162.479 371.235 162.517 371.178 162.566C371.121 162.615 371.075 162.675 371.041 162.742C371.008 162.809 370.988 162.882 370.982 162.957C370.977 163.032 370.987 163.107 371.01 163.178C371.034 163.249 371.072 163.315 371.121 163.371L374.89 167.704V165.964" fill="#3348BD"/>
<path d="M362.299 171.615C362.006 171.87 361.602 171.883 361.395 171.644C361.189 171.406 361.257 171.008 361.549 170.754L370.973 162.556C371.264 162.302 371.669 162.289 371.877 162.526C372.083 162.764 372.014 163.164 371.722 163.417L362.299 171.615" fill="#3348BD"/>
<path d="M392.056 171.008H385.816L384.472 174H383.24L388.36 162.8H389.528L394.648 174H393.4L392.056 171.008ZM391.624 170.048L388.936 164.032L386.248 170.048H391.624ZM399.738 170.256H397.818V174H396.682V165.584H397.818V169.28H399.754L402.714 165.584H403.946L400.634 169.664L404.186 174H402.842L399.738 170.256ZM414.907 173.008V176.112H413.835V174H406.139V165.584H407.275V173.008H412.411V165.584H413.547V173.008H414.907ZM417.237 165.584H418.373V172.272L423.989 165.584H424.997V174H423.861V167.312L418.261 174H417.237V165.584ZM428.412 165.584H429.548V172.272L435.164 165.584H436.172V174H435.036V167.312L429.436 174H428.412V165.584Z" fill="#11173D"/>
</g>
<g filter="url(#filter2_d_1345_688)">
<rect x="486" y="144" width="203" height="48" rx="14" fill="white"/>
<g clip-path="url(#clip0_1345_688)">
<path d="M521.385 171.275C522.496 171.271 524.925 171.262 524.897 169.717C524.87 168.137 522.537 168.232 521.4 168.279C521.273 168.284 521.16 168.289 521.068 168.29L521.12 171.277C521.195 171.275 521.285 171.275 521.385 171.275Z" fill="#3348BD"/>
<path d="M521.267 166.922C522.194 166.921 524.217 166.919 524.193 165.514C524.167 164.077 522.224 164.162 521.275 164.204C521.168 164.209 521.075 164.213 520.997 164.214L521.044 166.923L521.267 166.922Z" fill="#3348BD"/>
<path fill-rule="evenodd" clip-rule="evenodd" d="M519.096 179.641C525.526 181.244 532.038 177.331 533.641 170.903C535.244 164.474 531.33 157.962 524.9 156.36C518.474 154.756 511.962 158.67 510.36 165.1C508.757 171.528 512.67 178.04 519.097 179.642L519.096 179.641ZM523.378 162.621C525.132 162.745 526.528 163.259 526.711 164.863C526.847 166.037 526.367 166.752 525.588 167.166C526.888 167.454 527.713 168.209 527.583 169.937C527.422 172.082 525.835 172.685 523.557 172.855L523.595 175.105L522.239 175.13L522.2 172.91C521.849 172.916 521.489 172.92 521.116 172.918L521.156 175.148L519.8 175.172L519.76 172.918L519.377 172.921C519.183 172.922 518.987 172.923 518.791 172.927L517.025 172.957L517.266 171.333C517.266 171.333 518.27 171.331 518.252 171.316C518.636 171.308 518.733 171.031 518.754 170.857L518.693 167.3L518.79 167.298H518.836C518.788 167.293 518.74 167.29 518.692 167.291L518.648 164.751C518.591 164.477 518.407 164.161 517.858 164.171C517.873 164.151 516.872 164.188 516.872 164.188L516.846 162.74L518.718 162.708V162.715C518.999 162.71 519.288 162.7 519.581 162.689L519.543 160.46L520.899 160.437L520.937 162.621C521.299 162.608 521.663 162.594 522.02 162.588L521.982 160.418L523.339 160.394L523.378 162.623V162.621Z" fill="#3348BD"/>
</g>
<path d="M547.6 168.864H545.04V174H543.888V162.8H545.04V167.824H547.6L551.392 162.8H552.672L548.512 168.24L552.912 174H551.552L547.6 168.864ZM559.19 165.52C559.979 165.52 560.694 165.701 561.334 166.064C561.974 166.416 562.475 166.917 562.838 167.568C563.201 168.219 563.382 168.96 563.382 169.792C563.382 170.635 563.201 171.381 562.838 172.032C562.475 172.683 561.974 173.189 561.334 173.552C560.705 173.904 559.99 174.08 559.19 174.08C558.507 174.08 557.889 173.941 557.334 173.664C556.79 173.376 556.342 172.96 555.99 172.416V177.104H554.854V165.584H555.942V167.248C556.283 166.693 556.731 166.267 557.286 165.968C557.851 165.669 558.486 165.52 559.19 165.52ZM559.11 173.072C559.697 173.072 560.23 172.939 560.71 172.672C561.19 172.395 561.563 172.005 561.83 171.504C562.107 171.003 562.246 170.432 562.246 169.792C562.246 169.152 562.107 168.587 561.83 168.096C561.563 167.595 561.19 167.205 560.71 166.928C560.23 166.651 559.697 166.512 559.11 166.512C558.513 166.512 557.974 166.651 557.494 166.928C557.025 167.205 556.651 167.595 556.374 168.096C556.107 168.587 555.974 169.152 555.974 169.792C555.974 170.432 556.107 171.003 556.374 171.504C556.651 172.005 557.025 172.395 557.494 172.672C557.974 172.939 558.513 173.072 559.11 173.072ZM565.983 165.584H567.119V172.272L572.735 165.584H573.743V174H572.607V167.312L567.007 174H565.983V165.584ZM584.71 165.584V174H583.575V166.592H578.294V174H577.158V165.584H584.71ZM594.02 166.592H590.836V174H589.7V166.592H586.516V165.584H594.02V166.592ZM598.904 174.08C598.093 174.08 597.362 173.899 596.712 173.536C596.061 173.163 595.549 172.651 595.176 172C594.802 171.349 594.616 170.613 594.616 169.792C594.616 168.971 594.802 168.235 595.176 167.584C595.549 166.933 596.061 166.427 596.712 166.064C597.362 165.701 598.093 165.52 598.904 165.52C599.714 165.52 600.445 165.701 601.096 166.064C601.746 166.427 602.253 166.933 602.616 167.584C602.989 168.235 603.176 168.971 603.176 169.792C603.176 170.613 602.989 171.349 602.616 172C602.253 172.651 601.746 173.163 601.096 173.536C600.445 173.899 599.714 174.08 598.904 174.08ZM598.904 173.072C599.501 173.072 600.034 172.939 600.504 172.672C600.984 172.395 601.357 172.005 601.624 171.504C601.89 171.003 602.024 170.432 602.024 169.792C602.024 169.152 601.89 168.581 601.624 168.08C601.357 167.579 600.984 167.195 600.504 166.928C600.034 166.651 599.501 166.512 598.904 166.512C598.306 166.512 597.768 166.651 597.288 166.928C596.818 167.195 596.445 167.579 596.168 168.08C595.901 168.581 595.768 169.152 595.768 169.792C595.768 170.432 595.901 171.003 596.168 171.504C596.445 172.005 596.818 172.395 597.288 172.672C597.768 172.939 598.306 173.072 598.904 173.072ZM611.123 169.648C612.265 169.915 612.835 170.603 612.835 171.712C612.835 172.448 612.563 173.013 612.019 173.408C611.475 173.803 610.665 174 609.587 174H605.763V165.584H609.475C610.435 165.584 611.187 165.771 611.731 166.144C612.275 166.517 612.547 167.051 612.547 167.744C612.547 168.203 612.419 168.597 612.163 168.928C611.918 169.248 611.571 169.488 611.123 169.648ZM606.867 169.328H609.395C610.046 169.328 610.542 169.205 610.883 168.96C611.235 168.715 611.411 168.357 611.411 167.888C611.411 167.419 611.235 167.067 610.883 166.832C610.542 166.597 610.046 166.48 609.395 166.48H606.867V169.328ZM609.539 173.104C610.265 173.104 610.809 172.987 611.171 172.752C611.534 172.517 611.715 172.149 611.715 171.648C611.715 171.147 611.55 170.779 611.219 170.544C610.889 170.299 610.366 170.176 609.651 170.176H606.867V173.104H609.539ZM618.554 165.52C619.653 165.52 620.495 165.797 621.082 166.352C621.669 166.896 621.962 167.707 621.962 168.784V174H620.874V172.688C620.618 173.125 620.239 173.467 619.738 173.712C619.247 173.957 618.661 174.08 617.978 174.08C617.039 174.08 616.293 173.856 615.738 173.408C615.183 172.96 614.906 172.368 614.906 171.632C614.906 170.917 615.162 170.341 615.674 169.904C616.197 169.467 617.023 169.248 618.154 169.248H620.826V168.736C620.826 168.011 620.623 167.461 620.218 167.088C619.813 166.704 619.221 166.512 618.442 166.512C617.909 166.512 617.397 166.603 616.906 166.784C616.415 166.955 615.994 167.195 615.642 167.504L615.13 166.656C615.557 166.293 616.069 166.016 616.666 165.824C617.263 165.621 617.893 165.52 618.554 165.52ZM618.154 173.184C618.794 173.184 619.343 173.04 619.802 172.752C620.261 172.453 620.602 172.027 620.826 171.472V170.096H618.186C616.746 170.096 616.026 170.597 616.026 171.6C616.026 172.091 616.213 172.48 616.586 172.768C616.959 173.045 617.482 173.184 618.154 173.184ZM632.026 165.584V174H630.89V166.592H626.858L626.746 168.672C626.661 170.421 626.458 171.765 626.138 172.704C625.818 173.643 625.247 174.112 624.426 174.112C624.202 174.112 623.93 174.069 623.61 173.984L623.69 173.008C623.882 173.051 624.015 173.072 624.09 173.072C624.527 173.072 624.858 172.869 625.082 172.464C625.306 172.059 625.455 171.557 625.53 170.96C625.605 170.363 625.669 169.573 625.722 168.592L625.866 165.584H632.026ZM642.647 165.52C643.437 165.52 644.146 165.701 644.775 166.064C645.415 166.427 645.917 166.933 646.279 167.584C646.642 168.235 646.823 168.971 646.823 169.792C646.823 170.613 646.642 171.349 646.279 172C645.917 172.651 645.415 173.163 644.775 173.536C644.146 173.899 643.437 174.08 642.647 174.08C641.901 174.08 641.223 173.92 640.615 173.6C640.007 173.269 639.511 172.816 639.127 172.24C638.754 171.664 638.535 171.003 638.471 170.256H636.551V174H635.415V165.584H636.551V169.216H638.487C638.573 168.491 638.802 167.851 639.175 167.296C639.559 166.731 640.05 166.293 640.647 165.984C641.245 165.675 641.911 165.52 642.647 165.52ZM642.647 173.088C643.223 173.088 643.741 172.949 644.199 172.672C644.669 172.395 645.037 172.005 645.303 171.504C645.57 171.003 645.703 170.432 645.703 169.792C645.703 169.152 645.57 168.581 645.303 168.08C645.037 167.579 644.669 167.195 644.199 166.928C643.741 166.651 643.223 166.512 642.647 166.512C642.071 166.512 641.549 166.651 641.079 166.928C640.621 167.195 640.258 167.579 639.991 168.08C639.725 168.581 639.591 169.152 639.591 169.792C639.591 170.432 639.725 171.003 639.991 171.504C640.258 172.005 640.621 172.395 641.079 172.672C641.549 172.949 642.071 173.088 642.647 173.088ZM655.027 166.592H651.843V174H650.707V166.592H647.523V165.584H655.027V166.592ZM659.725 165.52C660.824 165.52 661.666 165.797 662.253 166.352C662.84 166.896 663.133 167.707 663.133 168.784V174H662.045V172.688C661.789 173.125 661.41 173.467 660.909 173.712C660.418 173.957 659.832 174.08 659.149 174.08C658.21 174.08 657.464 173.856 656.909 173.408C656.354 172.96 656.077 172.368 656.077 171.632C656.077 170.917 656.333 170.341 656.845 169.904C657.368 169.467 658.194 169.248 659.325 169.248H661.997V168.736C661.997 168.011 661.794 167.461 661.389 167.088C660.984 166.704 660.392 166.512 659.613 166.512C659.08 166.512 658.568 166.603 658.077 166.784C657.586 166.955 657.165 167.195 656.813 167.504L656.301 166.656C656.728 166.293 657.24 166.016 657.837 165.824C658.434 165.621 659.064 165.52 659.725 165.52ZM659.325 173.184C659.965 173.184 660.514 173.04 660.973 172.752C661.432 172.453 661.773 172.027 661.997 171.472V170.096H659.357C657.917 170.096 657.197 170.597 657.197 171.6C657.197 172.091 657.384 172.48 657.757 172.768C658.13 173.045 658.653 173.184 659.325 173.184Z" fill="#11173D"/>
</g>
<g filter="url(#filter3_d_1345_688)">
<rect x="713" y="144" width="177" height="48" rx="14" fill="white"/>
<path d="M753.5 160.5H757.25V177.75H740.75V160.5H744.5V162H753.5V160.5ZM743.75 168H754.25V166.5H743.75V168ZM743.75 174H754.25V172.5H743.75V174ZM746 160.5V158.25H752V160.5H746Z" fill="#3348BD"/>
<path d="M775.8 174.096C774.691 174.096 773.683 173.851 772.776 173.36C771.88 172.859 771.176 172.176 770.664 171.312C770.163 170.448 769.912 169.477 769.912 168.4C769.912 167.323 770.163 166.352 770.664 165.488C771.176 164.624 771.88 163.947 772.776 163.456C773.683 162.955 774.691 162.704 775.8 162.704C776.909 162.704 777.907 162.949 778.792 163.44C779.688 163.931 780.392 164.613 780.904 165.488C781.416 166.352 781.672 167.323 781.672 168.4C781.672 169.477 781.416 170.453 780.904 171.328C780.392 172.192 779.688 172.869 778.792 173.36C777.907 173.851 776.909 174.096 775.8 174.096ZM775.8 173.04C776.685 173.04 777.485 172.843 778.2 172.448C778.915 172.043 779.475 171.488 779.88 170.784C780.285 170.069 780.488 169.275 780.488 168.4C780.488 167.525 780.285 166.736 779.88 166.032C779.475 165.317 778.915 164.763 778.2 164.368C777.485 163.963 776.685 163.76 775.8 163.76C774.915 163.76 774.109 163.963 773.384 164.368C772.669 164.763 772.104 165.317 771.688 166.032C771.283 166.736 771.08 167.525 771.08 168.4C771.08 169.275 771.283 170.069 771.688 170.784C772.104 171.488 772.669 172.043 773.384 172.448C774.109 172.843 774.915 173.04 775.8 173.04ZM788.465 165.792C789.244 165.792 789.937 165.968 790.545 166.32C791.164 166.661 791.644 167.147 791.985 167.776C792.327 168.395 792.497 169.104 792.497 169.904C792.497 170.725 792.316 171.456 791.953 172.096C791.601 172.725 791.105 173.216 790.465 173.568C789.825 173.92 789.089 174.096 788.257 174.096C786.86 174.096 785.777 173.605 785.009 172.624C784.241 171.643 783.857 170.288 783.857 168.56C783.857 166.757 784.199 165.376 784.881 164.416C785.575 163.456 786.652 162.805 788.113 162.464L791.889 161.6L792.081 162.64L788.529 163.456C787.324 163.723 786.439 164.197 785.873 164.88C785.308 165.552 784.999 166.549 784.945 167.872C785.287 167.221 785.761 166.715 786.369 166.352C786.977 165.979 787.676 165.792 788.465 165.792ZM788.289 173.152C788.876 173.152 789.399 173.019 789.857 172.752C790.327 172.475 790.689 172.091 790.945 171.6C791.212 171.109 791.345 170.555 791.345 169.936C791.345 169.317 791.217 168.773 790.961 168.304C790.705 167.835 790.343 167.472 789.873 167.216C789.415 166.949 788.887 166.816 788.289 166.816C787.692 166.816 787.159 166.949 786.689 167.216C786.231 167.472 785.868 167.835 785.601 168.304C785.345 168.773 785.217 169.317 785.217 169.936C785.217 170.555 785.345 171.109 785.601 171.6C785.868 172.091 786.236 172.475 786.705 172.752C787.175 173.019 787.703 173.152 788.289 173.152ZM801.925 165.584V174H800.789V166.592H796.757L796.645 168.672C796.56 170.421 796.357 171.765 796.037 172.704C795.717 173.643 795.147 174.112 794.325 174.112C794.101 174.112 793.829 174.069 793.509 173.984L793.589 173.008C793.781 173.051 793.915 173.072 793.989 173.072C794.427 173.072 794.757 172.869 794.981 172.464C795.205 172.059 795.355 171.557 795.429 170.96C795.504 170.363 795.568 169.573 795.621 168.592L795.765 165.584H801.925ZM805.315 165.584H806.451V172.272L812.067 165.584H813.075V174H811.939V167.312L806.339 174H805.315V165.584ZM822.442 166.592H817.626V174H816.49V165.584H822.442V166.592ZM827.14 165.52C828.239 165.52 829.081 165.797 829.668 166.352C830.255 166.896 830.548 167.707 830.548 168.784V174H829.46V172.688C829.204 173.125 828.825 173.467 828.324 173.712C827.833 173.957 827.247 174.08 826.564 174.08C825.625 174.08 824.879 173.856 824.324 173.408C823.769 172.96 823.492 172.368 823.492 171.632C823.492 170.917 823.748 170.341 824.26 169.904C824.783 169.467 825.609 169.248 826.74 169.248H829.412V168.736C829.412 168.011 829.209 167.461 828.804 167.088C828.399 166.704 827.807 166.512 827.028 166.512C826.495 166.512 825.983 166.603 825.492 166.784C825.001 166.955 824.58 167.195 824.228 167.504L823.716 166.656C824.143 166.293 824.655 166.016 825.252 165.824C825.849 165.621 826.479 165.52 827.14 165.52ZM826.74 173.184C827.38 173.184 827.929 173.04 828.388 172.752C828.847 172.453 829.188 172.027 829.412 171.472V170.096H826.772C825.332 170.096 824.612 170.597 824.612 171.6C824.612 172.091 824.799 172.48 825.172 172.768C825.545 173.045 826.068 173.184 826.74 173.184ZM842.5 173.008V176.112H841.428V174H833.732V165.584H834.868V173.008H840.004V165.584H841.14V173.008H842.5ZM844.83 165.584H845.966V172.272L851.582 165.584H852.59V174H851.454V167.312L845.854 174H844.83V165.584ZM856.005 165.584H857.141V172.272L862.757 165.584H863.765V174H862.629V167.312L857.029 174H856.005V165.584Z" fill="#11173D"/>
</g>
<g filter="url(#filter4_d_1345_688)">
<rect x="914" y="144" width="180" height="48" rx="14" fill="white"/>
<path d="M960.8 161H939.2C938.537 161 938 161.537 938 162.2V174.2C938 174.863 938.537 175.4 939.2 175.4H960.8C961.463 175.4 962 174.863 962 174.2V162.2C962 161.537 961.463 161 960.8 161ZM939.8 173.6V171.2C941.126 171.2 942.2 172.274 942.2 173.6H939.8ZM939.8 165.2V162.8H942.2C942.2 164.126 941.126 165.2 939.8 165.2ZM950 171.8C948.343 171.8 947 170.188 947 168.2C947 166.212 948.343 164.6 950 164.6C951.657 164.6 953 166.212 953 168.2C953 170.189 951.656 171.8 950 171.8ZM960.2 173.6H957.8C957.8 172.274 958.874 171.2 960.2 171.2V173.6ZM960.2 165.2C958.874 165.2 957.8 164.126 957.8 162.8H960.2V165.2Z" fill="#3348BD"/>
<path d="M982.176 172.976V176.512H981.072V174H971.296L971.28 176.512H970.176L970.192 172.976H970.752C971.488 172.933 972 172.352 972.288 171.232C972.576 170.101 972.752 168.501 972.816 166.432L972.944 162.8H980.496V172.976H982.176ZM973.872 166.544C973.819 168.251 973.685 169.659 973.472 170.768C973.269 171.867 972.923 172.603 972.432 172.976H979.328V163.824H973.968L973.872 166.544ZM984.479 165.584H985.615V172.272L991.231 165.584H992.239V174H991.103V167.312L985.503 174H984.479V165.584ZM1001.01 169.648C1002.16 169.915 1002.73 170.603 1002.73 171.712C1002.73 172.448 1002.45 173.013 1001.91 173.408C1001.37 173.803 1000.56 174 999.479 174H995.655V165.584H999.367C1000.33 165.584 1001.08 165.771 1001.62 166.144C1002.17 166.517 1002.44 167.051 1002.44 167.744C1002.44 168.203 1002.31 168.597 1002.05 168.928C1001.81 169.248 1001.46 169.488 1001.01 169.648ZM996.759 169.328H999.287C999.937 169.328 1000.43 169.205 1000.77 168.96C1001.13 168.715 1001.3 168.357 1001.3 167.888C1001.3 167.419 1001.13 167.067 1000.77 166.832C1000.43 166.597 999.937 166.48 999.287 166.48H996.759V169.328ZM999.431 173.104C1000.16 173.104 1000.7 172.987 1001.06 172.752C1001.43 172.517 1001.61 172.149 1001.61 171.648C1001.61 171.147 1001.44 170.779 1001.11 170.544C1000.78 170.299 1000.26 170.176 999.543 170.176H996.759V173.104H999.431ZM1005.55 165.584H1006.69V172.272L1012.3 165.584H1013.31V174H1012.17V167.312L1006.57 174H1005.55V165.584ZM1024.93 173.008V176.032H1023.86V174H1016.32V176.032H1015.25V173.008H1015.73C1016.3 172.976 1016.68 172.56 1016.88 171.76C1017.09 170.96 1017.23 169.84 1017.3 168.4L1017.41 165.584H1023.62V173.008H1024.93ZM1018.34 168.464C1018.29 169.659 1018.19 170.645 1018.04 171.424C1017.89 172.192 1017.62 172.72 1017.24 173.008H1022.48V166.592H1018.44L1018.34 168.464ZM1034.67 170.144H1027.63C1027.69 171.019 1028.03 171.728 1028.63 172.272C1029.24 172.805 1030.01 173.072 1030.94 173.072C1031.46 173.072 1031.94 172.981 1032.38 172.8C1032.82 172.608 1033.19 172.331 1033.51 171.968L1034.15 172.704C1033.78 173.152 1033.31 173.493 1032.75 173.728C1032.19 173.963 1031.58 174.08 1030.91 174.08C1030.04 174.08 1029.27 173.899 1028.6 173.536C1027.94 173.163 1027.42 172.651 1027.05 172C1026.68 171.349 1026.49 170.613 1026.49 169.792C1026.49 168.971 1026.67 168.235 1027.02 167.584C1027.38 166.933 1027.87 166.427 1028.49 166.064C1029.12 165.701 1029.82 165.52 1030.6 165.52C1031.38 165.52 1032.08 165.701 1032.7 166.064C1033.32 166.427 1033.8 166.933 1034.15 167.584C1034.51 168.224 1034.68 168.96 1034.68 169.792L1034.67 170.144ZM1030.6 166.496C1029.79 166.496 1029.11 166.757 1028.55 167.28C1028.01 167.792 1027.7 168.464 1027.63 169.296H1033.59C1033.52 168.464 1033.21 167.792 1032.65 167.28C1032.11 166.757 1031.42 166.496 1030.6 166.496ZM1037.36 165.584H1038.49V169.312H1043.79V165.584H1044.93V174H1043.79V170.288H1038.49V174H1037.36V165.584ZM1056.52 173.008V176.032H1055.45V174H1047.91V176.032H1046.84V173.008H1047.32C1047.89 172.976 1048.27 172.56 1048.47 171.76C1048.68 170.96 1048.82 169.84 1048.89 168.4L1049 165.584H1055.21V173.008H1056.52ZM1049.93 168.464C1049.88 169.659 1049.78 170.645 1049.63 171.424C1049.48 172.192 1049.21 172.72 1048.83 173.008H1054.07V166.592H1050.03L1049.93 168.464ZM1062.43 168.56C1063.49 168.571 1064.29 168.805 1064.85 169.264C1065.4 169.723 1065.68 170.384 1065.68 171.248C1065.68 172.144 1065.38 172.832 1064.78 173.312C1064.19 173.792 1063.33 174.027 1062.22 174.016L1058.9 174V165.584H1060.03V168.528L1062.43 168.56ZM1067.09 165.584H1068.22V174H1067.09V165.584ZM1062.16 173.152C1062.94 173.163 1063.53 173.008 1063.92 172.688C1064.33 172.357 1064.53 171.877 1064.53 171.248C1064.53 170.629 1064.33 170.171 1063.94 169.872C1063.54 169.573 1062.95 169.419 1062.16 169.408L1060.03 169.376V173.12L1062.16 173.152Z" fill="#11173D"/>
</g>
<g filter="url(#filter5_d_1345_688)">
<rect x="1118" y="144" width="145" height="48" rx="14" fill="white"/>
<path d="M1163 161H1145C1144.73 161 1144.48 161.105 1144.29 161.293C1144.11 161.48 1144 161.735 1144 162V166H1144.89C1145.89 166 1146.81 166.681 1146.97 167.664C1147.02 167.951 1147.01 168.245 1146.93 168.526C1146.85 168.807 1146.72 169.068 1146.53 169.29C1146.34 169.513 1146.11 169.691 1145.84 169.814C1145.58 169.937 1145.29 170 1145 170H1144V174C1144 174.265 1144.11 174.52 1144.29 174.707C1144.48 174.895 1144.73 175 1145 175H1163C1163.27 175 1163.52 174.895 1163.71 174.707C1163.89 174.52 1164 174.265 1164 174V170H1163C1162.71 170 1162.42 169.937 1162.16 169.814C1161.89 169.691 1161.66 169.513 1161.47 169.29C1161.28 169.068 1161.15 168.807 1161.07 168.526C1160.99 168.245 1160.98 167.951 1161.03 167.664C1161.19 166.681 1162.11 166 1163.11 166H1164V162C1164 161.735 1163.89 161.48 1163.71 161.293C1163.52 161.105 1163.27 161 1163 161ZM1153 173H1151V171H1153V173ZM1153 169H1151V167H1153V169ZM1153 165H1151V163H1153V165Z" fill="#3348BD"/>
<path d="M1179.6 168.864H1177.04V174H1175.89V162.8H1177.04V167.824H1179.6L1183.39 162.8H1184.67L1180.51 168.24L1184.91 174H1183.55L1179.6 168.864ZM1193.76 165.584L1189.55 175.008C1189.21 175.797 1188.81 176.357 1188.36 176.688C1187.92 177.019 1187.38 177.184 1186.75 177.184C1186.34 177.184 1185.96 177.12 1185.61 176.992C1185.26 176.864 1184.96 176.672 1184.7 176.416L1185.23 175.568C1185.65 175.995 1186.17 176.208 1186.76 176.208C1187.15 176.208 1187.47 176.101 1187.74 175.888C1188.02 175.675 1188.27 175.312 1188.51 174.8L1188.88 173.984L1185.12 165.584H1186.3L1189.47 172.736L1192.64 165.584H1193.76ZM1203.24 165.584V174H1202.1V166.592H1196.82V174H1195.69V165.584H1203.24ZM1210.1 174.08C1209.29 174.08 1208.56 173.899 1207.91 173.536C1207.26 173.163 1206.74 172.651 1206.37 172C1206 171.349 1205.81 170.613 1205.81 169.792C1205.81 168.971 1206 168.235 1206.37 167.584C1206.74 166.933 1207.26 166.427 1207.91 166.064C1208.56 165.701 1209.29 165.52 1210.1 165.52C1210.91 165.52 1211.64 165.701 1212.29 166.064C1212.94 166.427 1213.45 166.933 1213.81 167.584C1214.18 168.235 1214.37 168.971 1214.37 169.792C1214.37 170.613 1214.18 171.349 1213.81 172C1213.45 172.651 1212.94 173.163 1212.29 173.536C1211.64 173.899 1210.91 174.08 1210.1 174.08ZM1210.1 173.072C1210.7 173.072 1211.23 172.939 1211.7 172.672C1212.18 172.395 1212.55 172.005 1212.82 171.504C1213.09 171.003 1213.22 170.432 1213.22 169.792C1213.22 169.152 1213.09 168.581 1212.82 168.08C1212.55 167.579 1212.18 167.195 1211.7 166.928C1211.23 166.651 1210.7 166.512 1210.1 166.512C1209.5 166.512 1208.96 166.651 1208.48 166.928C1208.01 167.195 1207.64 167.579 1207.36 168.08C1207.1 168.581 1206.96 169.152 1206.96 169.792C1206.96 170.432 1207.1 171.003 1207.36 171.504C1207.64 172.005 1208.01 172.395 1208.48 172.672C1208.96 172.939 1209.5 173.072 1210.1 173.072ZM1216.96 165.584H1218.1V169.312H1223.39V165.584H1224.53V174H1223.39V170.288H1218.1V174H1216.96V165.584ZM1231.45 168.56C1232.51 168.571 1233.31 168.805 1233.87 169.264C1234.42 169.723 1234.7 170.384 1234.7 171.248C1234.7 172.144 1234.4 172.832 1233.8 173.312C1233.21 173.792 1232.35 174.027 1231.24 174.016L1227.92 174V165.584H1229.05V168.528L1231.45 168.56ZM1236.11 165.584H1237.24V174H1236.11V165.584ZM1231.18 173.152C1231.96 173.163 1232.55 173.008 1232.94 172.688C1233.35 172.357 1233.55 171.877 1233.55 171.248C1233.55 170.629 1233.35 170.171 1232.96 169.872C1232.56 169.573 1231.97 169.419 1231.18 169.408L1229.05 169.376V173.12L1231.18 173.152Z" fill="#11173D"/>
</g>
<defs>
<filter id="filter0_d_1345_688" x="152" y="140" width="159" height="64" filterUnits="userSpaceOnUse" color-interpolation-filters="sRGB">
<feFlood flood-opacity="0" result="BackgroundImageFix"/>
<feColorMatrix in="SourceAlpha" type="matrix" values="0 0 0 0 0 0 0 0 0 0 0 0 0 0 0 0 0 0 127 0" result="hardAlpha"/>
<feOffset dy="4"/>
<feGaussianBlur stdDeviation="4"/>
<feComposite in2="hardAlpha" operator="out"/>
<feColorMatrix type="matrix" values="0 0 0 0 0.305882 0 0 0 0 0.337255 0 0 0 0 0.533333 0 0 0 0.16 0"/>
<feBlend mode="normal" in2="BackgroundImageFix" result="effect1_dropShadow_1345_688"/>
<feBlend mode="normal" in="SourceGraphic" in2="effect1_dropShadow_1345_688" result="shape"/>
</filter>
<filter id="filter1_d_1345_688" x="319" y="140" width="151" height="64" filterUnits="userSpaceOnUse" color-interpolation-filters="sRGB">
<feFlood flood-opacity="0" result="BackgroundImageFix"/>
<feColorMatrix in="SourceAlpha" type="matrix" values="0 0 0 0 0 0 0 0 0 0 0 0 0 0 0 0 0 0 127 0" result="hardAlpha"/>
<feOffset dy="4"/>
<feGaussianBlur stdDeviation="4"/>
<feComposite in2="hardAlpha" operator="out"/>
<feColorMatrix type="matrix" values="0 0 0 0 0.305882 0 0 0 0 0.337255 0 0 0 0 0.533333 0 0 0 0.16 0"/>
<feBlend mode="normal" in2="BackgroundImageFix" result="effect1_dropShadow_1345_688"/>
<feBlend mode="normal" in="SourceGraphic" in2="effect1_dropShadow_1345_688" result="shape"/>
</filter>
<filter id="filter2_d_1345_688" x="478" y="140" width="219" height="64" filterUnits="userSpaceOnUse" color-interpolation-filters="sRGB">
<feFlood flood-opacity="0" result="BackgroundImageFix"/>
<feColorMatrix in="SourceAlpha" type="matrix" values="0 0 0 0 0 0 0 0 0 0 0 0 0 0 0 0 0 0 127 0" result="hardAlpha"/>
<feOffset dy="4"/>
<feGaussianBlur stdDeviation="4"/>
<feComposite in2="hardAlpha" operator="out"/>
<feColorMatrix type="matrix" values="0 0 0 0 0.305882 0 0 0 0 0.337255 0 0 0 0 0.533333 0 0 0 0.16 0"/>
<feBlend mode="normal" in2="BackgroundImageFix" result="effect1_dropShadow_1345_688"/>
<feBlend mode="normal" in="SourceGraphic" in2="effect1_dropShadow_1345_688" result="shape"/>
</filter>
<filter id="filter3_d_1345_688" x="705" y="140" width="193" height="64" filterUnits="userSpaceOnUse" color-interpolation-filters="sRGB">
<feFlood flood-opacity="0" result="BackgroundImageFix"/>
<feColorMatrix in="SourceAlpha" type="matrix" values="0 0 0 0 0 0 0 0 0 0 0 0 0 0 0 0 0 0 127 0" result="hardAlpha"/>
<feOffset dy="4"/>
<feGaussianBlur stdDeviation="4"/>
<feComposite in2="hardAlpha" operator="out"/>
<feColorMatrix type="matrix" values="0 0 0 0 0.305882 0 0 0 0 0.337255 0 0 0 0 0.533333 0 0 0 0.16 0"/>
<feBlend mode="normal" in2="BackgroundImageFix" result="effect1_dropShadow_1345_688"/>
<feBlend mode="normal" in="SourceGraphic" in2="effect1_dropShadow_1345_688" result="shape"/>
</filter>
<filter id="filter4_d_1345_688" x="906" y="140" width="196" height="64" filterUnits="userSpaceOnUse" color-interpolation-filters="sRGB">
<feFlood flood-opacity="0" result="BackgroundImageFix"/>
<feColorMatrix in="SourceAlpha" type="matrix" values="0 0 0 0 0 0 0 0 0 0 0 0 0 0 0 0 0 0 127 0" result="hardAlpha"/>
<feOffset dy="4"/>
<feGaussianBlur stdDeviation="4"/>
<feComposite in2="hardAlpha" operator="out"/>
<feColorMatrix type="matrix" values="0 0 0 0 0.305882 0 0 0 0 0.337255 0 0 0 0 0.533333 0 0 0 0.16 0"/>
<feBlend mode="normal" in2="BackgroundImageFix" result="effect1_dropShadow_1345_688"/>
<feBlend mode="normal" in="SourceGraphic" in2="effect1_dropShadow_1345_688" result="shape"/>
</filter>
<filter id="filter5_d_1345_688" x="1110" y="140" width="161" height="64" filterUnits="userSpaceOnUse" color-interpolation-filters="sRGB">
<feFlood flood-opacity="0" result="BackgroundImageFix"/>
<feColorMatrix in="SourceAlpha" type="matrix" values="0 0 0 0 0 0 0 0 0 0 0 0 0 0 0 0 0 0 127 0" result="hardAlpha"/>
<feOffset dy="4"/>
<feGaussianBlur stdDeviation="4"/>
<feComposite in2="hardAlpha" operator="out"/>
<feColorMatrix type="matrix" values="0 0 0 0 0.305882 0 0 0 0 0.337255 0 0 0 0 0.533333 0 0 0 0.16 0"/>
<feBlend mode="normal" in2="BackgroundImageFix" result="effect1_dropShadow_1345_688"/>
<feBlend mode="normal" in="SourceGraphic" in2="effect1_dropShadow_1345_688" result="shape"/>
</filter>
<clipPath id="clip0_1345_688">
<rect width="24" height="24" fill="white" transform="translate(510 156)"/>
</clipPath>
</defs>
</svg>
